<?xml version="1.0" standalone="no"?>
<!DOCTYPE svg PUBLIC "-//W3C//DTD SVG 20010904//EN"
 "http://www.w3.org/TR/2001/REC-SVG-20010904/DTD/svg10.dtd">
<svg version="1.0" xmlns="http://www.w3.org/2000/svg"
 width="1976.000000pt" height="2400.000000pt" viewBox="0 0 1976.000000 2400.000000"
 preserveAspectRatio="xMidYMid meet">

<g transform="translate(0.000000,2400.000000) scale(0.100000,-0.100000)"
fill="#000000" stroke="none">
<path d="M3711 19141 c-8 -14 -7 -20 4 -25 8 -3 15 -1 15 3 0 5 3 16 6 25 9
23 -13 20 -25 -3z"/>
<path d="M16013 19143 c20 -36 45 -107 48 -140 1 -5 6 -17 11 -27 6 -11 13
-36 15 -55 3 -20 10 -42 15 -49 6 -7 8 -31 5 -53 -3 -23 -1 -53 4 -68 6 -14
12 -55 13 -91 2 -36 9 -119 16 -185 15 -137 9 -612 -9 -785 -6 -58 -16 -150
-22 -205 -5 -55 -14 -122 -19 -150 -5 -27 -14 -93 -20 -145 -17 -151 -32 -244
-42 -263 -19 -37 -40 -13 -75 88 -34 99 -34 101 -29 245 2 80 9 170 15 200 7
30 14 101 18 156 4 89 2 109 -17 165 -37 102 -120 267 -215 425 l-33 54 -7
-65 c-3 -36 -11 -67 -16 -70 -5 -4 -9 -16 -9 -28 -1 -12 -18 -55 -39 -96 l-38
-74 -26 84 c-14 46 -29 102 -33 124 -4 22 -11 48 -15 57 -5 9 -12 34 -15 55
-3 21 -10 46 -15 55 -5 9 -6 23 -3 31 3 8 -3 22 -13 32 -10 11 -16 29 -15 45
2 15 -4 32 -13 40 -15 13 -16 10 -10 -23 5 -26 4 -37 -4 -37 -7 0 -9 -4 -6
-10 3 -5 0 -10 -8 -10 -10 0 -13 -8 -9 -25 2 -14 9 -25 14 -25 7 0 7 -4 1 -12
-10 -13 -10 -22 3 -84 4 -23 2 -33 -10 -37 -18 -7 -29 20 -22 56 3 20 1 24
-10 20 -8 -3 -13 -12 -10 -19 4 -9 -2 -14 -15 -14 -11 0 -17 -4 -14 -10 3 -5
1 -10 -5 -10 -6 0 -8 -5 -4 -12 5 -7 3 -8 -5 -3 -7 4 -10 16 -7 28 3 12 1 16
-5 10 -5 -5 -10 -21 -11 -35 -2 -23 -6 -26 -30 -21 -17 3 -28 1 -28 -6 0 -6
-5 -11 -11 -11 -5 0 -7 5 -3 12 4 6 3 8 -4 4 -6 -3 -9 -15 -7 -26 5 -25 -18
-22 -25 4 -4 12 -23 24 -55 34 -28 8 -53 19 -56 24 -4 6 -12 9 -17 7 -11 -4
104 -166 309 -437 112 -147 203 -299 252 -417 15 -38 32 -79 37 -90 5 -11 23
-72 41 -135 18 -63 49 -158 70 -210 20 -52 40 -104 44 -115 6 -15 5 -17 -4 -9
-17 16 -98 214 -131 320 -30 97 -139 333 -192 418 -45 71 -177 244 -267 349
-42 48 -85 101 -97 116 -29 41 -87 115 -94 121 -3 3 -21 28 -40 55 -46 67 -91
115 -102 109 -5 -3 5 -19 21 -35 20 -19 28 -34 24 -46 -5 -12 -2 -15 10 -10 9
3 17 2 17 -2 0 -5 -6 -12 -12 -14 -10 -4 -10 -6 0 -6 21 -2 13 -21 -8 -21 -18
0 -19 -3 -10 -20 6 -11 16 -18 22 -14 7 4 6 9 -3 15 -10 6 -10 9 -2 9 6 0 14
-4 18 -9 6 -11 -21 -41 -37 -41 -6 0 -7 -8 -3 -17 5 -14 3 -15 -6 -6 -6 6 -18
9 -26 6 -21 -8 -34 17 -21 41 10 19 9 20 -5 8 -9 -8 -20 -11 -25 -8 -5 3 -9
-1 -9 -9 0 -8 5 -11 10 -8 6 3 7 1 3 -5 -3 -5 -3 -12 1 -15 5 -2 1 -2 -7 1 -8
2 -20 5 -27 5 -6 0 -9 6 -6 14 3 8 -2 13 -12 13 -11 0 -15 5 -11 15 3 8 1 15
-3 15 -5 0 -11 -6 -14 -12 -3 -10 -8 -10 -18 1 -8 8 -9 11 -3 8 6 -3 11 0 11
8 0 12 -3 12 -15 3 -11 -10 -16 -9 -23 5 -13 22 -30 22 -22 0 6 -16 5 -16 -10
-4 -22 17 -21 20 6 32 l22 10 -23 -5 c-17 -3 -33 4 -54 25 -17 16 -33 29 -35
29 -8 0 11 -25 106 -143 153 -189 201 -254 246 -333 8 -16 26 -47 38 -70 27
-47 119 -279 137 -344 7 -25 16 -56 20 -70 5 -14 13 -54 19 -90 6 -36 14 -75
17 -87 5 -17 2 -23 -9 -23 -9 0 -20 6 -24 14 -4 7 -57 66 -118 132 -60 65
-143 154 -184 198 -103 112 -189 192 -327 302 -79 62 -221 147 -309 184 -16 7
-38 16 -47 21 -10 5 -26 9 -37 9 -11 0 -21 5 -23 11 -2 6 -15 9 -28 6 l-25 -4
23 -8 c12 -4 22 -12 22 -17 0 -5 5 -6 10 -3 6 3 10 1 10 -5 0 -6 -10 -8 -26
-4 -17 4 -29 2 -35 -7 -7 -11 -9 -11 -9 -1 0 7 -5 10 -10 7 -6 -4 -9 -1 -8 7
2 8 -5 12 -19 10 -12 -2 -24 2 -28 8 -3 5 -1 10 4 10 20 0 11 39 -10 45 -25 8
-39 -2 -15 -11 9 -3 16 -10 16 -16 0 -5 -4 -6 -10 -3 -5 3 -10 0 -10 -7 0 -10
-2 -10 -9 1 -5 8 -16 11 -25 8 -9 -4 -16 -3 -16 1 0 4 -9 8 -20 8 -13 0 -16
-4 -10 -10 17 -17 11 -21 -40 -24 -30 -2 -50 1 -50 7 0 12 11 14 47 11 18 -1
21 3 17 15 -4 9 -10 13 -13 8 -6 -10 -18 -11 -133 -15 -45 -2 -64 -6 -57 -13
13 -13 129 -33 195 -34 73 -1 166 -45 211 -101 24 -29 141 -274 148 -309 2 -9
11 -34 20 -56 25 -55 29 -69 80 -210 18 -49 49 -137 69 -195 20 -58 41 -114
45 -125 5 -11 17 -40 26 -65 34 -91 81 -156 210 -291 87 -90 150 -133 288
-199 122 -58 191 -81 447 -149 275 -72 309 -94 158 -99 -63 -2 -109 3 -168 18
-190 48 -487 187 -680 318 -55 37 -47 9 22 -74 35 -41 77 -92 93 -112 45 -55
217 -227 239 -239 18 -10 19 -13 4 -34 -49 -73 -86 -89 -80 -35 3 25 -6 53
-33 104 -61 116 -106 140 -65 35 27 -68 32 -83 53 -145 l16 -47 -69 -56 c-113
-92 -343 -336 -396 -419 -26 -42 -49 -74 -52 -72 -2 3 1 28 7 57 7 29 16 133
21 230 8 144 7 200 -5 292 -26 197 -71 401 -109 492 -10 22 -28 73 -42 113
-13 41 -38 103 -54 138 -17 35 -30 68 -30 73 0 15 -50 125 -54 120 -2 -2 -19
-26 -38 -54 -19 -27 -46 -68 -61 -89 -15 -21 -27 -51 -27 -65 0 -31 49 -213
100 -371 20 -63 49 -159 65 -213 l28 -98 -24 -26 c-57 -61 -243 -223 -351
-305 -447 -337 -977 -582 -1663 -768 -186 -50 -349 -91 -440 -110 -55 -12
-154 -32 -220 -46 -66 -14 -178 -36 -248 -48 -71 -13 -132 -27 -137 -32 -4 -5
-25 -40 -45 -79 -142 -266 -242 -384 -438 -516 -195 -130 -400 -206 -637 -234
-144 -16 -136 -16 -250 -4 -313 35 -522 120 -761 310 -115 91 -262 279 -342
434 -14 28 -35 60 -46 72 -23 24 -29 26 -131 42 -155 25 -201 33 -310 58 -63
14 -131 29 -150 33 -125 27 -243 57 -436 110 -782 218 -1386 514 -1871 921
-155 129 -203 178 -203 205 0 13 31 135 68 272 89 320 110 423 95 463 -17 43
-86 149 -96 146 -22 -7 -180 -424 -222 -584 -50 -192 -60 -295 -60 -602 l0
-283 -30 38 c-65 83 -274 301 -357 373 -49 41 -88 83 -88 92 0 9 11 54 24 100
13 46 27 100 30 119 6 33 6 34 -8 16 -9 -10 -30 -59 -47 -109 -18 -49 -38 -91
-45 -94 -17 -6 -104 45 -104 62 0 7 11 20 24 29 31 20 82 71 171 172 39 43
103 113 143 156 65 69 93 112 60 92 -7 -4 -58 -36 -114 -70 -55 -34 -127 -76
-161 -92 -99 -51 -313 -139 -388 -160 -117 -34 -315 -41 -315 -12 0 15 61 37
193 70 340 83 520 151 654 247 66 46 178 169 244 265 38 55 124 224 162 318
11 25 25 59 32 75 14 31 119 291 175 430 63 158 106 241 150 288 66 72 106 89
230 97 115 7 136 14 193 69 48 45 68 92 68 156 0 53 -29 146 -56 175 -8 9 -15
21 -15 26 0 12 -72 84 -84 84 -5 0 -2 -7 5 -16 17 -20 22 -56 23 -149 0 -59
-4 -76 -27 -112 -43 -68 -94 -99 -217 -133 -248 -69 -441 -160 -617 -292 -119
-89 -217 -182 -394 -374 -262 -284 -299 -316 -284 -241 41 207 73 307 146 457
113 233 182 339 304 470 34 36 74 83 90 105 16 22 37 46 47 53 10 7 18 22 18
32 0 10 4 20 8 22 13 5 55 69 49 75 -3 2 -17 -14 -31 -36 -15 -23 -31 -41 -36
-41 -6 0 -10 -4 -10 -10 0 -5 -8 -19 -17 -30 -12 -14 -20 -16 -29 -9 -13 11
-61 2 -50 -9 3 -3 -3 -12 -14 -19 -11 -8 -18 -18 -16 -22 3 -4 -6 -7 -18 -7
-17 0 -22 5 -19 17 3 11 -4 22 -19 30 -22 12 -22 11 -8 -7 14 -18 14 -18 -2
-5 -10 7 -18 23 -18 36 0 32 -9 36 -37 18 -24 -16 -24 -17 -7 -24 16 -6 14 -7
-6 -6 -20 1 -26 6 -27 29 0 22 4 28 21 29 15 1 17 2 4 6 -16 4 -16 7 0 51 9
26 20 49 23 52 11 10 39 55 39 63 0 13 -55 -58 -95 -122 -5 -9 -21 -34 -35
-56 -14 -22 -32 -53 -40 -68 -8 -16 -26 -41 -40 -55 -14 -15 -52 -61 -85 -103
-56 -70 -195 -245 -265 -331 -129 -158 -225 -346 -300 -583 -30 -94 -117 -291
-126 -283 -2 2 17 55 41 118 25 63 47 125 50 139 9 52 125 351 158 411 11 19
34 60 50 90 28 51 77 117 300 402 136 175 147 190 147 205 0 7 4 13 8 13 5 0
14 11 20 24 9 21 8 23 -9 19 -23 -6 -39 25 -19 37 20 13 -6 41 -34 36 -11 -3
-27 -5 -34 -5 -7 -1 -10 -6 -6 -12 3 -6 -5 -4 -18 5 -14 9 -27 14 -29 11 -7
-6 -65 47 -71 66 -3 8 -9 11 -13 7 -4 -4 -2 -14 5 -23 15 -18 11 -19 -24 -5
-25 9 -37 40 -15 40 5 0 7 5 4 10 -3 6 -15 10 -26 10 -30 0 -44 20 -44 65 0
30 -4 39 -15 38 -10 -2 -16 5 -17 19 -2 17 0 19 6 9 14 -22 38 -6 43 29 6 41
-8 49 -16 9 -5 -25 -9 -29 -19 -20 -16 13 -37 -4 -37 -30 0 -10 -4 -21 -10
-24 -5 -3 -10 -19 -10 -35 0 -16 -4 -32 -10 -35 -6 -3 -10 -18 -10 -33 0 -15
-7 -36 -15 -46 -8 -11 -15 -28 -15 -38 0 -10 -4 -26 -10 -36 -10 -17 -60 -200
-64 -237 -2 -11 -10 -42 -20 -68 -9 -26 -16 -55 -16 -65 -1 -36 -59 98 -97
223 -19 65 -27 71 -47 41 -38 -58 -186 -357 -205 -414 -25 -74 -27 -164 -5
-282 33 -182 43 -292 33 -375 -18 -151 -66 -260 -97 -222 -16 19 -30 83 -47
212 -8 66 -20 143 -25 170 -5 28 -16 89 -24 137 -40 223 -52 861 -21 1148 9
91 18 185 20 210 1 25 7 58 14 73 6 16 11 36 11 44 0 19 18 79 31 105 12 24
11 41 -1 33 -17 -11 -11 10 10 33 13 13 16 23 9 27 -6 4 -17 -1 -24 -11 -20
-26 -113 -190 -175 -309 -28 -55 -63 -120 -77 -145 -14 -25 -82 -143 -150
-263 -146 -256 -250 -466 -289 -587 -8 -25 -19 -54 -24 -65 -16 -37 -59 -179
-75 -250 -9 -38 -18 -79 -21 -90 -35 -147 -45 -424 -20 -550 29 -143 46 -166
58 -80 45 320 100 576 129 609 18 20 21 -5 6 -51 -44 -138 -67 -354 -67 -633
0 -184 -30 -349 -74 -411 l-14 -21 -13 23 c-7 13 -20 49 -30 79 -9 30 -31 96
-49 145 -47 132 -96 300 -111 380 -28 149 -11 457 36 680 39 185 -5 92 -68
-140 -3 -11 -22 -76 -42 -145 -91 -313 -147 -542 -175 -715 -56 -345 -54 -314
-54 -665 -1 -268 3 -360 17 -460 33 -235 69 -384 142 -595 123 -351 135 -413
135 -732 0 -198 -3 -243 -14 -243 -20 0 -107 97 -149 167 -84 138 -147 292
-257 623 -47 144 -120 528 -120 637 0 51 -14 39 -29 -24 -16 -69 -16 -404 -1
-563 25 -253 33 -313 62 -455 48 -237 132 -451 281 -715 225 -399 422 -631
837 -988 329 -282 691 -532 2160 -1487 113 -73 250 -163 305 -199 167 -109
307 -207 301 -213 -3 -3 -51 21 -108 54 -174 100 -565 330 -723 425 -271 164
-1126 674 -1400 835 -93 55 -204 118 -245 141 -41 22 -130 71 -197 109 -67 37
-182 99 -255 138 -73 38 -173 92 -223 118 -89 48 -255 135 -535 280 -80 41
-176 92 -215 113 -186 100 -1172 584 -1190 584 -1 0 -55 25 -120 56 -64 30
-123 54 -130 52 -21 -5 201 -337 349 -523 170 -214 549 -563 791 -729 139 -96
205 -147 205 -158 0 -7 -50 -9 -137 -6 -156 6 -194 16 -343 90 -52 26 -96 46
-98 44 -4 -4 82 -102 289 -330 322 -355 586 -574 859 -711 113 -56 349 -152
441 -179 142 -40 388 -85 557 -101 39 -4 72 -11 72 -16 0 -19 -162 -86 -280
-115 -116 -28 -376 -12 -504 31 -97 33 -72 -1 58 -79 132 -80 413 -166 538
-166 51 0 150 25 201 52 67 34 129 48 210 48 61 0 79 -3 84 -16 12 -33 -107
-124 -218 -165 -69 -25 -237 -35 -343 -20 -211 30 -469 153 -846 404 -188 125
-319 229 -493 392 -186 175 -302 274 -356 302 l-42 22 57 -66 c31 -37 125
-171 209 -298 84 -127 183 -269 221 -316 249 -308 512 -524 829 -679 177 -86
287 -123 445 -149 154 -25 395 -76 433 -90 15 -6 27 -15 27 -21 0 -12 -73 -50
-95 -50 -9 0 -15 -5 -13 -11 6 -18 128 -61 258 -93 63 -16 124 -32 135 -36 39
-16 124 -40 139 -40 9 0 16 -4 16 -10 0 -5 8 -10 17 -10 21 0 223 -63 413
-129 146 -51 183 -63 360 -111 25 -7 56 -17 70 -22 43 -17 139 -47 280 -88
141 -40 245 -72 470 -145 74 -24 270 -88 435 -141 284 -92 383 -129 372 -140
-3 -3 -27 -1 -53 4 -44 9 -525 130 -834 211 -63 16 -180 46 -260 66 -80 20
-203 52 -275 71 -222 59 -597 154 -650 165 -27 6 -88 15 -135 20 -47 6 -104
13 -127 16 -23 3 -47 11 -54 19 -8 9 -33 14 -75 14 -34 0 -66 5 -69 10 -3 6
-23 10 -43 10 -50 0 -250 27 -339 45 -40 8 -77 15 -83 15 -20 0 -9 -25 18 -41
15 -9 73 -46 130 -83 56 -36 105 -66 107 -66 6 0 133 -89 200 -140 33 -26 98
-76 145 -112 215 -165 409 -292 536 -349 128 -58 329 -158 348 -174 38 -29 7
-26 -76 8 -109 46 -143 54 -263 67 -286 31 -404 66 -531 155 -36 25 -70 45
-75 45 -15 0 79 -130 168 -233 89 -104 153 -155 247 -197 39 -18 66 -36 63
-43 -2 -7 -57 -30 -123 -52 -139 -47 -210 -84 -273 -141 -67 -61 -103 -129
-164 -309 -73 -215 -102 -285 -204 -496 -47 -99 -84 -182 -81 -185 3 -3 34 9
68 26 158 80 427 161 615 185 88 11 255 45 303 61 100 34 158 70 233 144 79
78 120 142 205 319 61 126 108 192 190 272 103 98 216 156 423 214 62 17 115
25 170 25 81 0 115 -14 64 -26 -15 -3 -80 -22 -143 -41 -63 -19 -144 -43 -180
-53 -88 -26 -206 -97 -286 -172 -65 -61 -189 -236 -265 -373 -63 -115 -131
-206 -214 -290 -47 -47 -85 -87 -85 -90 0 -9 36 9 105 53 113 72 182 129 320
262 145 141 215 193 358 270 54 28 133 80 174 114 166 133 200 159 261 193 97
55 158 73 240 73 79 0 124 -16 142 -50 18 -34 -33 -113 -145 -225 -115 -116
-232 -206 -382 -295 -209 -125 -367 -201 -541 -260 -112 -38 -118 -46 -42 -60
102 -19 362 30 531 99 52 21 156 63 231 94 75 31 150 63 167 71 16 9 35 16 41
16 26 0 4 -22 -62 -63 -40 -24 -156 -95 -258 -157 -228 -138 -257 -159 -346
-252 -176 -181 -301 -462 -349 -785 -27 -187 -12 -606 24 -671 12 -20 13 -16
31 73 33 173 100 334 202 487 62 93 192 237 204 226 3 -4 -14 -39 -39 -80 -93
-153 -142 -279 -184 -473 -31 -147 -21 -535 15 -535 4 0 16 17 27 37 31 58 73
101 111 113 20 7 37 10 40 7 3 -2 -9 -27 -25 -55 -63 -107 -89 -244 -72 -374
6 -46 17 -141 25 -213 9 -71 20 -173 26 -225 6 -53 11 -164 11 -248 0 -84 4
-152 9 -152 4 0 27 30 51 67 119 187 235 315 374 412 123 87 188 154 235 243
68 127 73 211 21 367 -51 152 -59 252 -35 429 12 85 38 41 84 -143 58 -236
117 -357 246 -509 71 -83 200 -200 208 -188 3 4 -18 49 -46 98 -109 190 -189
429 -204 609 -5 64 -2 97 14 165 48 192 45 263 -13 415 -37 95 -55 163 -55
205 0 27 3 32 11 20 8 -12 10 -10 6 10 -3 14 1 39 9 55 14 29 14 28 9 -25 -9
-89 9 -149 76 -247 32 -48 59 -92 59 -98 0 -6 7 -21 16 -34 l16 -23 34 33 c33
32 40 48 64 154 13 55 38 139 51 170 5 11 22 58 39 105 32 90 98 213 186 344
60 91 139 184 148 175 3 -3 -21 -49 -55 -103 -33 -54 -75 -128 -93 -164 -94
-188 -190 -583 -162 -669 4 -11 15 -78 26 -148 10 -70 21 -129 24 -133 3 -3 6
47 6 111 0 64 3 117 6 117 4 0 36 -20 73 -44 119 -79 459 -443 633 -678 266
-356 326 -505 299 -741 -20 -170 -66 -259 -163 -313 -46 -25 -63 -28 -133 -28
-69 0 -93 6 -169 37 -49 20 -92 35 -94 32 -3 -3 8 -15 24 -27 293 -231 730
-777 1221 -1526 85 -131 167 -255 183 -277 15 -22 55 -85 90 -140 35 -55 122
-192 193 -305 71 -113 172 -275 224 -360 146 -237 207 -330 217 -327 7 2 133
194 289 442 88 141 278 438 322 505 444 674 618 927 846 1230 243 323 455 556
668 733 18 15 31 30 29 32 -3 3 -38 -7 -79 -21 -106 -38 -234 -40 -304 -4 -98
50 -154 174 -163 359 -9 191 42 323 216 565 210 290 504 606 694 744 123 89
118 89 118 -2 0 -42 4 -76 9 -76 4 0 11 34 15 77 4 42 14 89 21 104 12 22 13
43 4 108 -32 261 -121 512 -266 749 -41 68 -72 126 -69 129 7 8 8 7 71 -72
124 -154 255 -383 319 -555 15 -41 40 -126 57 -189 29 -114 41 -141 63 -141
19 0 136 150 164 210 46 98 28 192 -57 305 -41 54 -59 95 -42 95 27 0 114
-139 146 -235 21 -60 16 -104 -26 -228 -62 -187 -70 -251 -43 -372 21 -97 21
-339 0 -425 -36 -149 -142 -392 -212 -487 -37 -50 -12 -47 47 5 93 81 197 200
240 274 102 174 179 405 179 534 0 29 6 47 23 62 13 12 26 22 29 22 2 0 6 -23
7 -51 1 -28 7 -61 13 -73 22 -39 13 -238 -15 -346 -60 -229 -58 -272 11 -409
43 -86 118 -167 212 -231 121 -82 215 -185 345 -379 39 -57 76 -106 83 -109 9
-3 12 22 12 100 0 128 13 273 46 493 32 220 40 354 25 427 -7 32 -34 101 -62
154 -27 54 -49 99 -49 101 0 1 9 3 20 3 26 0 114 -81 142 -132 12 -21 25 -38
28 -38 14 0 30 141 30 252 0 101 -13 205 -39 323 -28 128 -115 332 -186 440
-65 97 -21 79 80 -34 70 -79 101 -125 168 -252 80 -150 146 -338 147 -416 0
-13 4 -23 10 -23 11 0 14 10 36 155 24 152 24 466 1 589 -31 163 -66 274 -131
412 -95 200 -211 335 -384 444 -176 112 -426 278 -457 306 l-30 26 50 -27 c75
-40 222 -100 447 -181 172 -62 531 -98 515 -51 -2 7 -72 40 -157 74 -282 115
-541 255 -720 391 -97 74 -259 237 -285 286 l-19 38 36 33 c45 41 105 53 194
36 112 -20 157 -47 354 -207 88 -71 129 -98 255 -169 150 -83 162 -93 315
-240 69 -66 168 -152 220 -191 102 -76 238 -160 246 -152 2 3 -31 41 -74 84
-101 101 -169 194 -276 373 -48 80 -103 165 -123 190 -98 122 -209 205 -385
292 -62 30 -71 32 -101 21 -45 -16 -70 -15 -111 5 -76 36 -41 69 63 60 86 -7
238 -57 329 -108 85 -47 199 -150 252 -229 20 -30 63 -107 95 -170 102 -205
184 -306 310 -384 72 -45 149 -66 350 -96 135 -20 247 -40 314 -56 63 -15 284
-94 395 -141 32 -13 61 -22 63 -19 3 3 -17 45 -45 93 -109 191 -216 431 -267
598 -48 158 -103 247 -198 319 -74 55 -139 83 -315 135 -40 12 -70 26 -67 31
4 6 13 10 20 10 38 0 188 103 270 185 77 76 217 263 209 277 -2 3 -28 -9 -57
-29 -73 -49 -192 -107 -257 -126 -53 -15 -202 -39 -325 -52 -78 -8 -150 -29
-253 -71 -45 -19 -88 -34 -95 -34 -35 1 112 79 289 154 60 25 154 73 208 106
95 58 236 157 236 166 0 3 -10 18 -22 34 -16 22 -19 33 -11 41 9 9 19 4 39
-16 32 -32 25 -35 151 58 213 157 343 245 506 343 98 58 175 109 173 112 -3 3
-30 0 -58 -6 -29 -7 -129 -21 -223 -32 -153 -19 -273 -36 -435 -60 -30 -5 -89
-16 -130 -25 -41 -9 -97 -20 -125 -25 -27 -5 -95 -21 -150 -35 -55 -14 -154
-39 -220 -55 -105 -26 -243 -63 -340 -91 -130 -38 -215 -61 -310 -84 -60 -15
-164 -42 -230 -61 -66 -18 -192 -52 -280 -74 -88 -22 -244 -62 -348 -89 -103
-26 -190 -45 -193 -40 -7 12 27 27 145 66 299 96 914 298 971 318 36 13 139
46 230 75 91 29 179 58 197 66 17 8 37 14 43 14 7 0 49 12 94 26 167 55 222
72 261 82 22 6 79 22 126 36 47 14 92 26 100 26 9 0 19 3 23 7 10 10 70 30
161 53 44 11 91 24 105 29 14 5 43 14 65 20 22 6 87 26 145 45 58 19 135 41
170 51 75 19 89 24 150 53 l45 22 -45 0 c-44 0 -110 29 -110 48 0 19 103 47
360 98 413 81 777 265 1098 557 170 154 278 285 472 577 114 172 193 279 247
340 30 32 23 35 -23 9 -52 -28 -123 -89 -275 -234 -187 -180 -311 -278 -584
-461 -176 -118 -291 -187 -399 -239 -243 -119 -352 -148 -546 -148 -146 0
-234 21 -315 77 -64 43 -119 101 -111 115 5 7 44 11 100 11 97 0 138 -10 232
-55 123 -60 265 -51 497 31 188 67 417 214 250 160 -205 -65 -523 -41 -695 52
-77 41 -70 46 77 62 485 52 974 255 1335 555 176 146 322 289 528 515 276 302
251 273 227 264 -11 -4 -38 -19 -60 -34 -109 -74 -213 -106 -387 -120 -72 -6
-133 -8 -136 -6 -12 13 13 39 85 87 296 199 619 479 817 709 114 132 254 320
357 480 68 106 83 136 70 138 -9 2 -68 -23 -131 -54 -63 -31 -180 -87 -260
-124 -595 -279 -1612 -791 -2005 -1010 -66 -37 -156 -86 -200 -110 -68 -37
-171 -94 -440 -245 -72 -40 -265 -152 -530 -308 -126 -75 -309 -182 -405 -238
-96 -56 -213 -126 -260 -154 -47 -29 -130 -78 -185 -110 -55 -32 -165 -98
-245 -145 -393 -236 -623 -364 -641 -358 -10 3 706 482 841 563 37 22 166 104
286 183 120 79 309 201 419 271 210 136 524 345 628 420 464 334 896 708 1046
906 29 39 85 113 124 165 85 113 202 303 279 455 160 313 216 523 273 1010 25
220 17 681 -11 652 -3 -3 -10 -51 -15 -106 -28 -304 -136 -688 -278 -994 -74
-161 -201 -347 -236 -347 -22 0 -25 26 -32 219 -9 292 -2 331 150 756 60 167
81 259 125 550 21 142 24 821 4 955 -27 184 -35 229 -54 330 -24 128 -67 311
-113 485 -19 72 -43 164 -54 205 -39 149 -92 325 -101 334 -14 14 -13 3 9
-100 27 -133 40 -225 51 -369 16 -227 -12 -385 -126 -710 -31 -88 -60 -176
-64 -195 -19 -88 -35 -89 -69 -5 -35 90 -51 211 -51 400 0 182 -23 399 -59
562 -12 51 -21 101 -21 110 0 40 29 -15 50 -92 24 -93 74 -379 90 -515 16
-136 20 -135 57 7 23 87 26 118 26 273 0 157 -3 190 -31 325 -61 294 -188 623
-342 890 -27 48 -50 88 -50 90 0 3 -21 37 -47 77 -26 40 -64 102 -83 138 -20
36 -48 85 -62 110 -14 25 -49 90 -78 145 -29 55 -58 109 -64 120 -19 36 -128
195 -133 195 -2 0 -2 -3 0 -7z m-559 -798 c3 -8 1 -15 -5 -15 -6 0 -8 -4 -4
-9 3 -5 1 -12 -5 -16 -6 -4 -10 6 -10 24 0 33 14 42 24 16z m-9329 -4 c3 -5 1
-12 -5 -16 -5 -3 -10 1 -10 9 0 18 6 21 15 7z m-1465 -37 c0 -22 -16 -17 -17
6 -1 11 2 18 8 15 5 -4 9 -13 9 -21z m-71 13 c-2 -1 -12 -9 -22 -16 -15 -12
-17 -12 -11 3 3 9 13 16 22 16 8 0 13 -1 11 -3z m106 -85 c-3 -3 -11 0 -18 7
-9 10 -8 11 6 5 10 -3 15 -9 12 -12z m10445 -56 c0 -3 -4 -8 -10 -11 -5 -3
-10 -1 -10 4 0 6 5 11 10 11 6 0 10 -2 10 -4z m-164 -103 c-10 -10 -19 5 -10
18 6 11 8 11 12 0 2 -7 1 -15 -2 -18z m-11719 -134 c85 -53 183 -242 183 -353
0 -55 -29 -47 -95 27 -69 76 -143 219 -152 295 -5 45 -4 52 12 52 10 0 33 -10
52 -21z m10903 -19 c0 -5 -7 -7 -15 -4 -8 4 -15 8 -15 10 0 2 7 4 15 4 8 0 15
-4 15 -10z m-8850 -419 c0 -6 -4 -13 -10 -16 -5 -3 -10 1 -10 9 0 9 5 16 10
16 6 0 10 -4 10 -9z m-117 -149 c-49 -48 -150 -141 -224 -207 -73 -66 -194
-176 -269 -245 -366 -338 -563 -501 -677 -560 -26 -14 -55 -30 -63 -36 -8 -6
-49 -29 -90 -51 -41 -22 -105 -59 -143 -82 -37 -22 -71 -41 -75 -41 -4 0 -27
-16 -51 -35 -59 -47 -66 -44 -11 4 25 22 110 79 189 128 260 159 328 210 567
423 65 58 172 151 238 206 67 56 186 156 266 223 208 174 306 259 369 318 92
85 71 50 -26 -45z m9497 -114 c0 -6 -6 -5 -15 2 -8 7 -15 14 -15 16 0 2 7 1
15 -2 8 -4 15 -11 15 -16z m65 -53 c21 -16 73 -59 116 -95 42 -36 143 -121
225 -190 235 -198 378 -321 394 -339 51 -54 271 -216 368 -271 23 -13 42 -27
42 -32 0 -4 5 -8 11 -8 6 0 23 -10 37 -21 15 -12 52 -37 82 -56 30 -19 47 -32
36 -29 -10 4 -64 35 -120 70 -55 35 -119 72 -141 83 -63 32 -154 89 -213 135
-111 88 -250 204 -342 287 -52 48 -167 149 -254 226 -174 152 -307 278 -290
273 6 -2 28 -16 49 -33z m1263 -551 c26 -9 53 -22 61 -29 21 -20 6 -45 -27
-45 -16 0 -35 -7 -42 -15 -10 -12 -7 -21 21 -52 39 -44 185 -249 218 -308 21
-37 21 -38 2 -15 -11 14 -58 77 -103 140 -120 169 -144 197 -206 236 -107 68
-124 84 -110 101 15 18 111 12 186 -13z m382 -197 c27 -21 60 -74 60 -97 0
-17 -5 -21 -26 -18 -20 2 -34 15 -52 49 -33 59 -22 98 18 66z m-12869 -204
c-12 -20 -14 -14 -5 12 4 9 9 14 11 11 3 -2 0 -13 -6 -23z m2 -188 c-3 -9 -8
-14 -10 -11 -3 3 -2 9 2 15 9 16 15 13 8 -4z m-74 -73 c-19 -21 -36 -37 -38
-35 -5 3 59 73 67 73 2 0 -11 -17 -29 -38z m1216 -123 c29 -76 30 -87 11 -108
-8 -9 -33 -54 -57 -100 -87 -168 -182 -231 -454 -302 -88 -22 -163 -43 -167
-45 -4 -2 -9 0 -13 5 -3 6 14 32 39 60 24 27 76 94 114 149 69 96 129 156 242
239 30 22 95 82 145 133 l89 92 13 -29 c7 -15 24 -58 38 -94z m10529 44 c15
-18 71 -68 125 -110 141 -113 205 -177 286 -283 40 -53 90 -111 111 -129 64
-55 65 -65 8 -56 -74 11 -353 93 -411 121 -67 32 -135 108 -196 217 -56 100
-57 122 -13 242 14 39 26 72 26 75 1 3 9 -6 18 -20 9 -13 30 -39 46 -57z
m-11844 57 c0 -5 -4 -10 -10 -10 -5 0 -10 5 -10 10 0 6 5 10 10 10 6 0 10 -4
10 -10z m-27 -35 c-3 -9 -8 -14 -10 -11 -3 3 -2 9 2 15 9 16 15 13 8 -4z m-29
-59 c-5 -13 -34 -31 -34 -21 0 5 30 35 35 35 3 0 2 -6 -1 -14z m-21 -82 c3
-16 0 -28 -9 -31 -7 -3 -16 -13 -19 -24 -4 -11 -11 -17 -16 -14 -5 3 -6 -1 -3
-9 8 -20 -6 -43 -15 -27 -4 6 -14 -5 -23 -27 -38 -87 -48 -115 -43 -122 3 -4
-2 -11 -11 -14 -9 -4 -14 -9 -11 -12 7 -8 -34 -54 -47 -54 -7 0 -8 3 -1 8 6 4
12 16 14 27 4 28 20 55 31 55 6 0 10 9 10 20 0 12 12 44 27 73 15 29 26 58 25
65 -2 6 2 12 9 12 13 0 58 49 60 65 1 6 1 16 0 23 -3 24 17 12 22 -14z m13237
-80 c0 -8 -5 -12 -10 -9 -6 4 -8 11 -5 16 9 14 15 11 15 -7z m23 -54 c-7 -8
-22 24 -16 34 4 5 10 1 13 -10 4 -10 6 -21 3 -24z m27 -4 c0 -2 -8 -10 -17
-17 -16 -13 -17 -12 -4 4 13 16 21 21 21 13z m-10779 -69 c15 -18 66 -59 113
-91 110 -73 109 -72 171 -341 41 -179 170 -431 316 -618 97 -125 291 -307 427
-401 177 -123 512 -248 817 -306 104 -20 150 -38 167 -68 10 -16 22 -85 33
-176 9 -82 19 -155 22 -162 13 -34 256 -162 443 -234 47 -18 100 -39 118 -46
18 -8 44 -14 58 -14 14 0 23 -4 20 -8 -2 -4 4 -8 15 -8 25 0 23 2 -116 95
-105 71 -130 94 -202 183 -100 122 -182 280 -219 418 -15 52 -30 102 -35 111
-6 12 -27 18 -71 22 -145 12 -389 69 -483 112 -16 7 -50 21 -75 31 -80 31
-259 137 -333 197 -171 138 -336 327 -481 550 -77 117 -188 359 -172 374 15
16 55 -30 72 -83 26 -83 100 -224 184 -349 164 -247 349 -434 539 -545 147
-85 373 -177 494 -201 50 -9 341 -49 363 -49 5 0 16 -35 23 -77 36 -215 134
-399 308 -578 69 -71 102 -94 248 -168 152 -77 219 -100 375 -128 175 -31 170
-29 170 -50 0 -21 -16 -26 -22 -7 -7 21 -25 -1 -42 -51 -18 -57 -21 -85 -6
-76 6 4 8 10 5 15 -3 5 0 12 6 15 19 12 22 -4 5 -29 -9 -14 -16 -32 -16 -41 0
-9 -7 -18 -15 -21 -22 -9 -18 -24 5 -24 12 0 20 -7 20 -16 0 -15 -10 -16 -79
-10 -261 21 -647 122 -971 253 -160 64 -372 167 -390 188 -8 10 -14 67 -17
167 -3 84 -9 167 -15 185 -11 37 -19 40 -183 74 -248 51 -481 150 -705 296
-263 173 -455 366 -639 641 -137 204 -238 490 -276 777 -16 125 -20 305 -7
305 4 0 19 -15 33 -33z m9224 -19 c62 -107 208 -229 375 -314 52 -26 113 -59
135 -73 22 -13 92 -52 156 -87 239 -127 469 -289 550 -387 109 -130 194 -292
217 -412 36 -192 41 -304 18 -445 -44 -273 -158 -473 -442 -779 -25 -27 -26
-3 -4 56 31 82 50 210 50 338 0 166 -11 167 -67 10 -64 -177 -161 -325 -304
-460 -114 -107 -325 -272 -445 -348 -258 -161 -576 -290 -752 -303 -82 -6 -92
-5 -92 10 0 9 50 65 111 124 351 337 565 711 758 1322 34 107 86 272 116 365
30 94 61 197 69 230 8 33 18 69 22 80 10 29 -102 -82 -209 -204 -93 -108 -183
-238 -210 -303 -9 -21 -21 -38 -26 -38 -6 0 -15 19 -21 43 -7 23 -26 57 -43
74 -31 33 -47 77 -102 283 -34 127 -54 462 -36 615 14 125 56 306 73 320 8 6
13 34 14 70 0 33 6 83 13 110 7 28 17 74 23 103 6 28 14 52 17 52 3 0 20 -24
36 -52z m-985 -56 c0 -201 -48 -446 -135 -681 -41 -113 -44 -123 -37 -188 11
-106 -7 -230 -47 -316 -15 -34 -27 -47 -39 -45 -15 3 -18 21 -22 123 l-5 120
-45 -60 c-290 -391 -574 -613 -1005 -783 -100 -40 -365 -112 -409 -112 -13 0
-33 -8 -45 -17 -18 -16 -22 -34 -31 -155 -5 -75 -12 -149 -15 -165 -4 -15 -8
-38 -11 -50 -3 -18 -33 -37 -132 -84 -345 -166 -760 -298 -1125 -358 -70 -12
-132 -19 -137 -16 -6 4 -10 16 -10 28 0 12 -11 67 -25 121 -14 54 -25 107 -25
117 0 21 21 29 92 34 64 5 256 40 265 49 4 3 -6 6 -20 6 -47 0 -33 15 43 45
86 33 213 96 257 126 55 37 126 108 198 198 94 117 135 205 184 404 17 64 33
122 36 127 3 6 23 10 44 10 37 0 80 6 236 36 139 26 179 36 200 48 11 7 39 18
62 24 23 7 73 28 112 47 39 19 72 35 75 35 2 0 33 18 67 40 35 22 77 48 93 58
110 67 385 322 450 418 15 21 46 66 71 99 24 33 44 63 45 67 0 3 16 30 35 60
20 29 58 98 85 153 27 56 57 108 67 117 24 22 115 69 121 64 2 -3 -11 -27 -30
-53 -19 -26 -40 -63 -47 -82 -6 -19 -33 -74 -60 -122 -27 -48 -55 -101 -62
-118 -8 -17 -18 -31 -22 -31 -5 0 -6 -4 -2 -9 3 -6 -3 -15 -14 -20 -11 -6 -36
-39 -57 -72 -20 -34 -57 -85 -82 -113 -25 -28 -70 -80 -101 -116 -77 -89 -104
-115 -212 -202 -126 -101 -219 -160 -347 -220 -190 -89 -367 -143 -552 -168
-109 -15 -108 -15 -126 -78 -46 -165 -105 -288 -192 -404 -50 -67 -178 -198
-193 -198 -17 0 -71 -59 -64 -70 12 -19 78 4 291 105 61 29 120 55 131 59 11
4 35 23 54 44 27 30 34 45 33 77 -2 75 -3 79 -18 66 -22 -19 -26 9 -7 54 25
63 61 120 83 134 11 7 17 8 14 2 -4 -5 -2 -12 4 -16 6 -4 10 6 10 24 0 39 33
64 107 80 323 68 692 205 807 298 15 13 42 30 60 37 42 18 176 119 254 190 94
88 243 279 313 401 51 91 111 220 144 311 36 98 44 156 11 73 -10 -24 -23 -55
-29 -69 -5 -14 -11 -32 -13 -41 -2 -9 -17 -45 -34 -80 -16 -35 -30 -69 -30
-75 0 -6 -11 -21 -25 -34 l-25 -23 0 24 c0 14 7 35 16 47 9 13 13 30 10 38 -3
8 -2 13 3 10 8 -5 14 16 24 76 2 10 6 20 9 24 4 3 4 12 2 18 -3 7 2 19 11 26
20 17 19 30 -2 30 -10 0 -14 4 -8 8 14 10 35 49 35 65 0 7 9 29 20 50 11 20
20 48 20 61 0 15 12 35 32 52 18 15 40 39 50 54 9 15 48 49 87 75 38 26 96 71
128 100 32 30 61 54 66 55 4 0 7 -44 7 -98z m-9228 11 c8 -32 35 -157 58 -278
38 -196 43 -240 47 -405 5 -170 3 -195 -21 -313 -14 -71 -26 -137 -26 -146 0
-10 12 -31 26 -47 14 -16 34 -46 45 -68 18 -34 19 -40 6 -53 -13 -13 -21 -11
-71 12 -32 15 -59 25 -62 22 -3 -2 -7 -22 -10 -43 -4 -22 -19 -77 -34 -124
-16 -47 -31 -97 -34 -112 -8 -37 -21 -35 -37 4 -33 79 -220 316 -353 447 l-65
64 20 -64 c13 -40 19 -79 15 -103 -3 -27 3 -58 19 -100 13 -34 40 -115 60
-181 133 -438 197 -612 306 -828 130 -260 316 -502 554 -723 58 -54 105 -101
105 -106 0 -17 -158 -7 -260 16 -360 82 -743 307 -1055 620 -155 156 -227 262
-292 435 -65 174 -73 175 -73 9 0 -137 14 -244 44 -327 19 -51 19 -51 6 -51
-5 0 -57 59 -114 131 -234 293 -337 617 -305 955 5 54 16 125 24 158 22 89
108 260 168 334 79 99 222 211 391 309 83 47 169 97 191 110 104 64 308 183
313 183 23 0 193 125 257 190 44 44 85 80 91 80 12 0 12 -22 -1 -70 -7 -23 -6
-23 14 5 15 20 20 39 17 57 -6 29 1 58 13 58 4 0 14 -26 23 -57z m11818 -14
c0 -5 -4 -9 -10 -9 -5 0 -10 7 -10 16 0 8 5 12 10 9 6 -3 10 -10 10 -16z
m-12900 -58 c-12 -17 -26 -31 -32 -31 -10 0 -4 11 31 53 24 28 25 11 1 -22z
m12335 9 l20 -25 -22 19 c-13 11 -23 24 -23 29 0 6 1 8 3 6 1 -2 11 -15 22
-29z m46 -62 c11 -21 11 -22 -4 -9 -10 7 -17 17 -17 22 0 15 9 10 21 -13z
m-12433 -17 c-7 -12 -16 -21 -20 -21 -5 0 -8 -6 -8 -12 0 -7 -12 -26 -26 -43
l-25 -30 17 35 c20 42 65 102 71 96 2 -2 -2 -13 -9 -25z m12986 13 c3 -8 2
-12 -4 -9 -6 3 -10 10 -10 16 0 14 7 11 14 -7z m-13590 -78 c-3 -9 -10 -13
-16 -10 -5 3 -4 12 3 20 15 18 22 13 13 -10z m6 -30 c0 -3 -4 -8 -10 -11 -5
-3 -10 -1 -10 4 0 6 5 11 10 11 6 0 10 -2 10 -4z m13120 -21 c7 -9 8 -15 2
-15 -5 0 -12 7 -16 15 -3 8 -4 15 -2 15 2 0 9 -7 16 -15z m-13138 -35 c-2 -16
-6 -30 -8 -30 -2 0 -4 14 -4 30 0 17 4 30 8 30 5 0 7 -13 4 -30z m13214 -97
c26 -53 12 -47 -20 10 -17 31 -22 46 -12 38 9 -8 24 -29 32 -48z m-3016 -20
c0 -10 -108 -201 -144 -253 -81 -119 -322 -362 -451 -455 -142 -102 -325 -187
-498 -229 -121 -31 -348 -66 -421 -66 l-51 0 -18 -87 c-77 -375 -264 -622
-565 -744 -121 -49 -176 -66 -277 -84 -103 -19 -131 -19 -139 1 -13 33 11 51
76 57 79 8 239 49 320 82 300 122 479 385 525 770 l8 70 145 11 c141 11 173
16 330 49 165 35 449 157 520 223 13 12 30 22 37 22 7 0 13 3 13 8 0 4 17 18
38 32 45 30 52 37 75 73 l18 28 -32 -16 c-17 -9 -42 -29 -55 -43 -13 -15 -24
-21 -24 -14 0 6 5 12 10 12 6 0 10 5 10 10 0 6 -13 4 -30 -5 -16 -9 -30 -22
-30 -30 0 -8 -9 -15 -20 -15 -11 0 -23 -7 -26 -15 -4 -9 -15 -20 -25 -26 -16
-8 -18 -7 -10 13 5 13 13 24 20 24 23 3 25 4 13 16 -9 9 -15 8 -26 -7 -14 -20
-73 -34 -61 -15 3 5 1 10 -4 10 -6 0 -11 4 -11 10 0 5 3 9 8 9 4 -1 16 -1 27
0 18 1 18 3 3 11 -22 13 -48 2 -48 -21 0 -15 -5 -18 -32 -12 -18 3 -37 9 -42
14 -5 4 -15 5 -22 2 -8 -3 -22 -2 -31 2 -27 12 -66 5 -80 -13 -12 -16 -13 -16
-7 1 4 11 1 17 -10 17 -9 0 -16 -4 -16 -10 0 -5 -5 -10 -11 -10 -5 0 -7 6 -3
13 5 7 1 7 -10 -2 -14 -12 -22 -12 -37 -3 -14 9 -18 9 -17 1 2 -6 -2 -13 -9
-16 -7 -3 -10 4 -6 19 l5 23 -22 -25 c-12 -14 -18 -19 -14 -11 5 11 1 13 -22
7 -19 -4 -24 -3 -15 3 21 14 -18 20 -47 7 -16 -7 -26 -6 -35 3 -9 10 -8 11 8
6 14 -5 16 -4 7 2 -17 13 -57 9 -57 -4 0 -6 -4 -15 -9 -20 -5 -5 -6 -3 -2 5 4
6 2 12 -3 12 -6 0 -11 -4 -11 -8 0 -4 -8 -9 -17 -10 -10 -1 -27 -3 -37 -4 -10
-2 -21 4 -24 12 -5 13 -3 13 11 1 10 -7 18 -11 18 -7 1 3 3 11 4 16 1 6 3 13
4 16 0 4 7 2 14 -4 8 -7 18 -7 27 -2 8 6 11 10 5 11 -13 1 -33 5 -67 14 -26 7
-40 -6 -20 -18 4 -2 0 -1 -8 1 -14 5 -63 6 -115 3 -52 -3 -123 -1 -148 5 -28
6 -28 26 1 23 10 -1 24 1 32 4 8 3 42 11 75 17 79 14 147 30 440 100 176 43
646 189 870 272 67 24 144 66 165 88 32 34 90 62 90 43z m-6642 -43 c20 -12
40 -37 51 -64 63 -145 257 -377 411 -491 282 -207 508 -283 1043 -352 l47 -6
0 -42 c0 -64 35 -212 73 -311 80 -207 246 -390 417 -459 85 -34 222 -75 289
-86 36 -6 84 -14 106 -18 26 -4 41 -12 43 -24 3 -15 -5 -17 -60 -17 -88 1
-227 36 -361 91 -299 123 -498 394 -547 742 l-12 87 -32 1 c-17 0 -44 2 -61 4
-16 2 -57 6 -90 10 -191 20 -397 73 -540 140 -17 7 -43 19 -60 25 -51 20 -178
102 -270 176 -149 120 -349 354 -435 509 -12 22 -31 55 -42 73 -23 37 -16 40
30 12z m7982 -48 c13 -12 17 -25 13 -40 -7 -27 -23 -29 -23 -2 0 25 -16 26
-29 3 -16 -29 -19 -11 -5 25 16 37 18 38 44 14z m-9060 -531 c0 -96 -43 -148
-69 -83 -32 82 -38 167 -14 202 l17 23 33 -38 c30 -35 33 -44 33 -104z m6970
-22 c0 -5 -4 -9 -10 -9 -5 0 -10 7 -10 16 0 8 5 12 10 9 6 -3 10 -10 10 -16z
m1413 -121 c3 -40 13 -145 22 -233 33 -303 24 -1009 -15 -1315 -5 -41 -14
-115 -20 -165 -28 -225 -68 -494 -101 -660 -59 -305 -71 -359 -124 -560 -82
-313 -72 -278 -147 -515 -38 -118 -85 -257 -141 -415 -163 -454 -450 -1078
-717 -1555 -517 -926 -1213 -1789 -2010 -2496 -89 -79 -197 -164 -208 -164 -8
0 -12 30 -12 98 l0 98 58 55 c31 30 75 70 97 88 22 19 127 115 233 214 874
816 1660 1950 2179 3142 125 285 260 640 334 875 17 52 41 129 54 170 13 41
40 131 59 200 20 69 40 139 45 155 57 184 176 781 220 1100 22 161 46 441 62
715 11 209 5 632 -11 826 -7 76 -6 114 4 151 17 63 116 274 126 268 4 -3 10
-37 13 -77z m-7973 -106 l52 -113 -7 -127 c-18 -314 -6 -881 26 -1207 30 -311
119 -854 185 -1135 38 -161 41 -173 90 -350 25 -91 48 -174 51 -185 21 -78 86
-281 145 -445 201 -566 377 -958 689 -1542 312 -582 786 -1261 1229 -1758 224
-253 662 -697 818 -830 l72 -62 0 -104 c0 -95 -7 -122 -25 -94 -4 6 -34 34
-68 62 -57 47 -108 92 -312 277 -325 295 -890 949 -1215 1406 -882 1243 -1469
2619 -1720 4030 -5 28 -15 88 -24 135 -40 227 -92 736 -101 985 -3 83 -7 198
-10 256 -5 133 11 599 24 699 5 41 13 113 17 159 8 101 11 99 84 -57z m8559
-115 c5 -13 28 -52 50 -87 45 -69 47 -86 30 -189 -16 -92 -37 -116 -57 -63
-35 92 -72 227 -72 266 0 80 30 124 49 73z m-9576 -123 c52 -52 107 -152 107
-196 0 -41 -31 -37 -70 10 -55 66 -122 232 -93 232 5 0 30 -21 56 -46z m8713
-423 c-7 -340 -11 -438 -26 -601 -5 -58 -12 -141 -15 -185 -6 -80 -27 -248
-45 -360 -5 -33 -17 -112 -26 -175 -17 -124 -38 -186 -30 -90 2 30 9 84 15
120 11 64 37 297 47 415 3 33 11 130 19 215 15 167 23 364 30 748 3 134 7 248
11 254 22 34 26 -45 20 -341z m-153 82 c-9 -653 -32 -979 -89 -1313 -8 -47
-26 -148 -39 -225 -13 -77 -31 -174 -40 -215 -8 -41 -18 -88 -22 -105 -3 -16
-21 -88 -40 -160 -19 -71 -43 -161 -53 -200 -10 -38 -30 -110 -45 -160 -15
-49 -34 -115 -42 -145 -22 -81 -110 -365 -139 -444 -79 -220 -282 -700 -392
-926 -130 -265 -382 -733 -452 -836 -16 -25 -30 -47 -30 -49 0 -12 -258 -411
-334 -515 -122 -167 -297 -401 -345 -460 -125 -154 -326 -385 -445 -513 -141
-151 -497 -487 -515 -487 -30 0 5 75 48 103 46 30 408 384 474 463 31 37 44
60 38 68 -33 41 -157 286 -165 328 -2 12 -15 48 -29 78 -25 55 -65 203 -73
266 -2 19 -11 51 -18 72 -8 20 -17 71 -21 112 -3 41 -8 98 -11 127 -3 28 -1
54 4 57 5 3 7 19 4 35 -2 18 -9 28 -15 24 -6 -4 -8 0 -5 9 3 8 2 34 -2 59 -16
84 -28 841 -33 1931 l-2 667 34 35 c19 20 39 36 44 36 6 0 7 -35 2 -92 -4 -51
-9 -433 -10 -848 -2 -415 -6 -957 -9 -1205 -4 -291 -2 -468 5 -500 5 -27 14
-111 20 -185 11 -146 10 -141 7 -185 -2 -16 2 -36 9 -42 6 -7 19 -48 28 -90
21 -91 102 -356 121 -395 8 -15 15 -37 17 -48 2 -12 8 -25 14 -28 6 -4 21 -28
34 -53 62 -120 74 -139 85 -139 7 0 32 23 56 52 24 28 61 72 84 97 63 72 238
287 362 449 136 176 249 338 366 524 47 76 114 182 149 235 168 259 445 789
607 1163 230 528 493 1341 564 1745 8 44 26 132 40 196 28 131 56 292 62 359
2 25 6 59 9 75 10 60 34 323 40 445 4 68 9 134 12 145 3 11 7 191 9 400 5 370
6 380 26 402 43 46 45 36 41 -194z m-3013 135 c0 -35 4 -119 10 -188 5 -69 17
-213 25 -320 22 -269 74 -536 136 -692 34 -87 23 -87 -91 2 -138 109 -158 128
-249 240 -92 113 -117 152 -181 279 -98 194 -190 476 -190 580 l0 29 98 7
c144 10 379 75 407 112 23 30 35 13 35 -49z m-1120 30 c80 -37 323 -88 424
-88 l48 0 -7 -57 c-18 -144 -93 -379 -173 -538 -73 -147 -189 -304 -299 -406
-98 -90 -241 -199 -246 -186 -2 6 16 69 39 138 60 178 113 399 128 534 3 28
10 85 15 128 6 43 11 170 11 282 1 187 4 221 19 212 3 -1 22 -10 41 -19z
m-3027 -6 c14 -15 16 -60 16 -357 0 -187 5 -374 10 -415 5 -41 12 -127 16
-189 6 -126 45 -447 70 -581 9 -47 20 -108 25 -136 54 -313 156 -729 255
-1035 223 -688 498 -1319 853 -1959 86 -155 264 -446 326 -535 24 -33 67 -96
96 -140 107 -160 440 -595 574 -750 34 -39 72 -87 86 -108 14 -20 31 -37 38
-37 26 0 83 106 179 334 13 32 32 70 41 84 9 15 16 28 14 29 -2 2 3 27 12 56
8 28 17 69 20 90 4 21 11 47 16 57 6 10 10 31 11 47 0 27 0 28 10 5 5 -13 7
-28 4 -32 -3 -5 -8 -28 -11 -52 -8 -68 -45 -210 -65 -250 -11 -21 -19 -44 -19
-53 0 -8 -4 -23 -10 -33 -5 -9 -21 -46 -35 -80 -14 -35 -47 -103 -74 -150 -60
-110 -63 -118 -45 -133 20 -16 75 -99 66 -99 -31 1 -353 362 -498 560 -427
580 -446 607 -661 965 -144 241 -197 335 -313 565 -164 326 -266 550 -427 945
-23 57 -70 185 -146 400 -70 199 -142 447 -230 795 -41 163 -53 218 -106 485
-25 124 -75 480 -91 635 -6 63 -16 153 -21 200 -13 103 -21 890 -10 890 4 0
15 -8 24 -18z m-1078 -173 c4 -12 3 -25 -3 -31 -15 -15 -52 9 -52 32 0 29 46
27 55 -1z m268 -408 c23 -40 21 -56 -9 -70 -30 -14 -39 -9 -59 30 -32 61 33
99 68 40z m-429 -57 c9 -8 16 -21 16 -27 0 -7 12 -34 25 -62 27 -54 18 -71
-19 -36 -12 12 -30 21 -39 21 -24 0 -47 40 -47 82 0 34 3 38 24 38 14 0 32 -7
40 -16z m4852 -191 c76 -139 156 -244 274 -363 215 -215 450 -352 735 -428
126 -34 192 -48 218 -44 50 6 47 -12 -16 -109 -194 -296 -384 -479 -727 -702
l-95 -62 -6 -850 c-3 -467 -7 -1597 -8 -2510 -3 -1838 -10 -2322 -35 -2455 -9
-47 -21 -107 -26 -135 -27 -146 -58 -302 -100 -495 -15 -65 -98 -409 -110
-450 -19 -66 -88 -335 -114 -445 -28 -114 -44 -157 -56 -150 -4 2 -15 35 -25
72 -10 37 -46 169 -80 293 -34 124 -70 259 -80 300 -9 41 -37 152 -60 245 -24
94 -57 233 -74 311 -17 77 -42 188 -56 245 -63 264 -58 29 -62 3177 l-4 2863
-37 25 c-257 174 -349 246 -493 386 -115 112 -220 241 -276 340 -63 111 -62
112 27 120 208 18 557 182 786 369 129 105 260 260 357 422 26 43 47 80 47 83
0 6 31 54 35 54 2 0 29 -48 61 -107z m4418 -169 c9 -3 16 -12 16 -19 0 -16
-59 -45 -76 -38 -16 6 -28 39 -19 53 7 11 54 13 79 4z m-1419 -380 c-78 -156
-114 -223 -167 -314 -11 -19 -32 -55 -46 -80 -13 -25 -30 -52 -37 -60 -7 -8
-16 -25 -19 -37 -6 -18 -2 -25 16 -32 41 -16 166 -110 192 -144 36 -46 33 -57
-13 -57 -30 0 -56 11 -113 49 -40 27 -82 59 -92 70 -19 21 -46 28 -46 13 0 -5
-13 -28 -29 -53 -15 -24 -98 -161 -183 -304 -85 -143 -184 -305 -220 -360 -68
-105 -431 -707 -488 -810 -30 -55 -186 -326 -237 -413 -28 -47 -124 -144 -183
-185 -25 -17 -47 -34 -50 -37 -3 -4 -16 -13 -29 -20 -23 -12 -23 -11 -17 14 3
15 13 34 21 44 25 31 180 255 250 362 97 148 143 219 175 265 15 22 46 72 69
110 43 72 79 131 341 554 85 138 170 279 189 313 18 35 51 91 72 125 22 34 39
65 39 68 0 11 135 229 245 397 158 241 191 293 303 483 56 94 108 180 117 193
39 54 20 5 -60 -154z m2803 121 c55 -17 65 -25 57 -48 -13 -32 -80 -57 -155
-57 -71 0 -200 27 -200 42 0 12 49 41 104 60 63 22 127 23 194 3z m-11698 -30
c12 -19 24 -50 27 -70 l6 -36 -29 11 c-38 15 -91 56 -105 81 -15 28 5 49 46
49 27 0 37 -6 55 -35z m2901 -230 c51 -82 120 -193 154 -245 34 -52 70 -111
80 -130 10 -19 41 -69 70 -110 29 -41 76 -118 105 -170 29 -52 66 -117 83
-145 16 -27 42 -72 57 -100 36 -68 140 -249 176 -307 16 -26 49 -80 73 -120
24 -40 61 -100 81 -133 20 -33 46 -75 56 -92 10 -18 71 -116 134 -218 63 -101
131 -210 150 -242 126 -210 205 -326 275 -406 158 -181 201 -240 223 -304 14
-41 4 -42 -34 -2 -16 17 -60 53 -99 81 -139 97 -238 213 -331 383 -21 39 -92
162 -157 275 -66 113 -138 237 -160 275 -22 39 -81 140 -132 225 -50 85 -129
220 -175 300 -45 80 -113 195 -150 255 -84 137 -200 339 -270 470 -29 55 -103
192 -165 305 -213 391 -234 465 -44 155z m8694 51 c-28 -48 -56 -75 -35 -35
19 37 54 88 58 84 2 -2 -8 -24 -23 -49z m-11695 -125 c17 -32 12 -61 -10 -61
-21 0 -60 36 -60 56 0 28 55 31 70 5z m11034 -8 c-15 -58 -86 -197 -149 -293
-98 -146 -214 -263 -394 -397 -183 -136 -204 -150 -136 -91 88 76 122 115 188
215 62 93 148 256 177 333 7 19 22 58 35 85 12 28 25 64 29 82 7 31 11 33 84
48 42 9 95 23 117 30 55 19 56 18 49 -12z m-10158 8 c16 -5 66 -18 112 -27 63
-14 82 -22 82 -35 0 -34 83 -256 125 -336 56 -107 134 -222 204 -303 50 -57
52 -61 21 -40 -77 52 -239 191 -303 259 -125 132 -229 292 -286 439 -20 50
-20 52 -2 52 10 0 31 -4 47 -9z m7674 -1 c0 -25 -416 -449 -602 -612 -134
-118 -186 -140 -229 -97 -13 13 -19 30 -17 47 3 30 45 63 285 230 81 57 171
123 200 145 60 49 263 221 312 266 35 32 51 38 51 21z m945 -440 c-34 -153
-80 -328 -88 -336 -4 -4 -7 -16 -7 -28 0 -11 -12 -58 -26 -105 -14 -47 -32
-108 -40 -136 -8 -27 -19 -59 -23 -70 -12 -28 -51 -158 -51 -171 0 -6 -6 -19
-14 -30 -16 -21 20 113 78 291 20 60 36 118 36 127 0 9 4 27 9 40 5 13 15 50
21 83 7 33 17 74 22 90 29 86 77 286 94 390 l9 50 3 -40 c2 -23 -9 -92 -23
-155z m-8943 -15 c11 -19 10 -19 -8 -5 -28 22 -73 72 -86 95 -6 11 11 0 37
-25 25 -25 51 -54 57 -65z m112 49 c3 -9 6 -23 6 -31 0 -14 -3 -14 -20 2 -11
10 -20 24 -20 32 0 18 27 16 34 -3z m1754 -69 c0 -16 -2 -15 -8 5 -4 14 -8 36
-8 50 0 22 1 22 8 -5 4 -16 8 -39 8 -50z m-2387 45 l24 -19 -27 -1 c-34 0 -78
16 -78 30 0 17 57 11 81 -10z m11219 -72 c-46 -42 -60 -51 -60 -40 0 10 67 62
80 62 3 0 -6 -10 -20 -22z m-3291 -272 c-24 -33 -100 -137 -169 -231 -70 -93
-163 -224 -208 -290 -102 -152 -141 -195 -176 -195 -35 0 -76 41 -76 76 0 28
72 103 290 304 57 52 126 122 154 156 188 225 221 262 225 253 2 -6 -16 -39
-40 -73z m3537 76 c6 -4 21 -25 33 -47 18 -34 19 -41 6 -54 -18 -18 -38 -3
-65 49 -14 28 -16 40 -7 49 13 13 18 13 33 3z m-8982 -157 c5 -29 4 -36 -3
-25 -6 8 -11 28 -11 44 0 39 6 31 14 -19z m2617 13 c0 -2 3 -73 6 -159 3 -118
1 -159 -8 -165 -9 -5 -11 -1 -7 14 4 12 3 20 -2 17 -4 -3 -8 32 -9 78 -1 45
-2 96 -2 112 -2 70 2 105 11 105 6 0 10 -1 11 -2z m5404 -128 c3 -5 -1 -10 -9
-10 -9 0 -16 5 -16 10 0 6 4 10 9 10 6 0 13 -4 16 -10z m-9780 -70 c17 -53
-34 -84 -57 -35 -8 19 -8 28 2 40 18 21 47 19 55 -5z m5849 -147 c-3 -166 -4
-173 -17 -173 -13 0 -6 303 8 312 5 4 11 8 11 8 1 0 0 -66 -2 -147z m-4005 52
c0 -5 -4 -3 -9 5 -5 8 -9 22 -9 30 0 16 17 -16 18 -35z m37 -129 c8 -26 14
-53 13 -60 -1 -21 -37 91 -42 135 -7 49 -9 55 29 -75z m-1549 72 c88 -93 58
-139 -31 -49 -32 33 -47 55 -43 65 10 26 41 19 74 -16z m-545 5 c22 -19 24
-43 3 -43 -14 0 -35 29 -35 49 0 16 11 14 32 -6z m6424 -104 c63 -100 75 -152
37 -157 -26 -4 -107 72 -124 115 -12 32 -15 125 -4 142 11 18 28 -1 91 -100z
m2265 -86 c-9 -15 -10 -14 -7 7 6 35 7 37 12 23 3 -7 1 -20 -5 -30z m-2635
-13 c0 -12 -4 -16 -9 -11 -5 5 -6 14 -3 20 10 15 12 14 12 -9z m-3832 -259
c-7 -8 -24 22 -18 31 3 4 1 8 -3 8 -11 0 -52 132 -59 188 -3 20 15 -21 40 -93
25 -71 43 -132 40 -134z m6416 117 c-12 -35 -25 -72 -30 -83 -4 -11 -34 -86
-66 -167 -32 -82 -61 -148 -64 -148 -10 0 56 187 76 218 9 13 18 35 20 49 3
14 14 44 24 66 11 23 20 45 20 50 0 5 8 34 17 65 12 41 18 50 21 35 2 -13 -6
-51 -18 -85z m-4750 82 c0 -5 -7 -7 -15 -4 -8 4 -15 8 -15 10 0 2 7 4 15 4 8
0 15 -4 15 -10z m4150 -94 c0 -28 -72 -157 -115 -204 -32 -35 -94 -79 -213
-150 -176 -105 -291 -184 -382 -261 -30 -25 -64 -53 -74 -61 -18 -14 -19 -14
-9 5 17 31 196 210 323 323 63 56 158 140 210 188 52 47 121 105 153 130 58
43 107 57 107 30z m-7997 -49 c31 -25 18 -29 -23 -6 -21 12 -41 28 -44 36 -4
10 0 10 22 -2 15 -8 35 -21 45 -28z m-143 -64 c8 -8 11 -13 5 -12 -26 4 -37
-2 -32 -20 7 -26 -12 -32 -52 -15 -38 16 -39 42 -1 61 27 14 57 9 80 -14z
m175 17 c-3 -5 -1 -10 5 -10 6 0 8 -5 5 -10 -5 -8 -11 -7 -21 1 -12 10 -12 14
-2 20 17 11 20 11 13 -1z m65 6 c0 -11 -19 -15 -25 -6 -3 5 1 10 9 10 9 0 16
-2 16 -4z m2133 -111 c14 -38 32 -83 38 -100 7 -16 11 -36 10 -42 -1 -7 2 -13
7 -13 5 0 26 -46 47 -102 21 -57 55 -140 76 -185 21 -45 50 -112 65 -150 14
-37 30 -75 34 -83 18 -28 190 -380 190 -387 0 -3 6 -14 14 -22 8 -9 37 -61 66
-116 29 -55 58 -107 65 -115 6 -8 26 -44 45 -80 18 -36 57 -104 86 -151 30
-47 58 -97 64 -110 12 -29 30 -58 48 -77 7 -8 20 -28 29 -45 8 -18 32 -57 53
-87 98 -146 236 -353 245 -368 6 -9 13 -19 16 -22 3 -3 56 -71 117 -153 127
-167 227 -293 254 -320 10 -10 18 -21 18 -25 0 -4 17 -26 38 -48 20 -23 57
-66 82 -95 24 -30 63 -74 86 -99 39 -42 67 -76 104 -124 12 -16 8 -15 -19 5
-38 28 -281 313 -281 331 0 6 -3 9 -6 5 -12 -12 -438 546 -543 714 -20 31 -56
85 -81 120 -24 35 -87 134 -138 219 -52 85 -109 178 -128 207 -19 28 -34 54
-34 57 0 3 -13 27 -28 53 -16 27 -27 54 -24 62 3 8 0 11 -7 7 -10 -6 -13 0
-10 20 0 4 -4 10 -9 13 -39 25 -449 869 -501 1033 -7 20 -25 64 -41 96 -16 33
-34 79 -40 103 -7 24 -18 56 -26 70 -16 32 -29 99 -16 84 4 -5 20 -41 35 -80z
m-2273 65 c0 -13 -20 -13 -40 0 -12 8 -9 10 13 10 15 0 27 -4 27 -10z m6056
-69 c0 -11 -4 -17 -8 -15 -4 3 -8 12 -8 20 0 8 4 14 8 14 4 0 8 -9 8 -19z
m325 -47 c17 -21 -2 -159 -26 -183 -15 -15 -17 -15 -31 4 -12 16 -14 36 -9 93
3 40 8 79 12 87 7 20 37 19 54 -1z m4520 1 c-1 -15 -24 -12 -29 3 -3 9 2 13
12 10 10 -1 17 -7 17 -13z m-176 -34 c-14 -12 -77 -32 -83 -26 -3 2 10 11 29
19 38 17 68 21 54 7z m-2285 -203 c-23 -69 -24 -72 -70 -173 -69 -151 -75
-165 -82 -165 -8 0 36 105 51 124 8 10 20 40 87 214 33 88 44 88 14 0z m2794
32 c21 -21 21 -21 1 -36 -32 -24 -64 -28 -84 -10 -10 9 -33 16 -52 16 l-34 0
30 -25 c41 -34 21 -46 -47 -29 -28 8 -53 16 -56 18 -9 10 8 36 23 36 8 0 32
11 53 24 21 13 47 26 58 29 34 10 87 -2 108 -23z m-11769 -10 c3 -5 1 -10 -4
-10 -6 0 -11 5 -11 10 0 6 2 10 4 10 3 0 8 -4 11 -10z m525 -30 c-20 -13 -43
-13 -35 0 3 6 16 10 28 10 18 0 19 -2 7 -10z m985 -14 c42 -20 47 -25 31 -31
-10 -5 -26 -3 -37 3 -20 13 -45 10 -86 -12 -37 -19 -76 -24 -83 -11 -3 6 11
10 33 11 20 1 41 4 44 8 9 9 -18 27 -29 20 -4 -3 -13 -2 -19 2 -24 15 15 21
47 8 42 -18 44 -17 44 2 0 10 -5 14 -16 10 -8 -3 -12 -2 -9 4 9 15 25 12 80
-14z m-272 -1 c3 -6 -7 -12 -24 -13 -29 -2 -41 12 -16 21 21 7 36 4 40 -8z
m-69 -19 c-3 -8 9 -28 28 -45 18 -17 27 -31 21 -31 -7 0 -13 5 -13 10 0 6 -6
10 -13 10 -12 0 -57 43 -57 54 0 3 8 7 18 9 9 3 18 5 19 6 1 0 0 -5 -3 -13z
m-107 -28 c13 -12 23 -25 23 -30 0 -13 -63 -48 -87 -48 -20 0 -23 5 -23 38 0
63 42 82 87 40z m-552 -37 c-9 -8 -36 -10 -30 -2 2 4 11 8 20 8 8 0 13 -3 10
-6z m110 -1 c4 -6 -11 -7 -42 -3 -63 8 -67 13 -10 13 25 0 49 -4 52 -10z
m-440 -20 c-3 -5 -14 -10 -23 -10 -15 0 -15 2 -2 10 20 13 33 13 25 0z m-80
-105 c-16 -7 -32 -11 -35 -9 -7 8 24 24 45 23 15 0 13 -4 -10 -14z m725 -85
c-6 -11 -16 -20 -22 -20 -6 0 -3 9 7 20 10 11 20 20 22 20 2 0 -1 -9 -7 -20z
m85 -54 c18 -13 16 -46 -3 -46 -8 0 -32 42 -32 55 0 9 16 5 35 -9z m7896 -13
c-12 -20 -14 -14 -5 12 4 9 9 14 11 11 3 -2 0 -13 -6 -23z m-100 -216 c-10 -9
-11 -8 -5 6 3 10 9 15 12 12 3 -3 0 -11 -7 -18z m-8251 -57 c0 -13 -11 -13
-30 0 -12 8 -11 10 8 10 12 0 22 -4 22 -10z m8180 -90 c0 -5 -5 -10 -11 -10
-5 0 -7 5 -4 10 3 6 8 10 11 10 2 0 4 -4 4 -10z m-4497 -208 c35 -36 34 -52
-2 -52 -21 0 -36 8 -51 30 -38 53 6 71 53 22z m-2928 -154 c15 -22 14 -23 -5
-26 -24 -4 -26 -15 -5 -32 28 -23 15 -30 -42 -24 -54 6 -93 25 -93 46 0 10 89
55 112 57 9 1 24 -9 33 -21z m-210 -73 c63 -18 72 -29 30 -37 -28 -6 -86 21
-93 42 -4 12 8 11 63 -5z m6689 -94 c3 -4 -1 -17 -9 -27 -13 -18 -14 -18 -39
5 -25 23 -33 51 -20 64 7 6 58 -26 68 -42z m-3373 -68 c49 -24 142 -122 167
-176 21 -45 30 -107 15 -107 -19 0 -73 42 -134 103 -72 71 -115 144 -104 177
8 24 13 25 56 3z m5914 -163 c3 -5 1 -10 -4 -10 -6 0 -11 5 -11 10 0 6 2 10 4
10 3 0 8 -4 11 -10z m-9065 -431 c0 -8 -58 -39 -74 -39 -2 0 -2 9 1 19 6 24
73 42 73 20z m10035 -33 c26 -21 28 -25 13 -31 -19 -8 -67 23 -68 43 0 19 22
14 55 -12z m-150 -188 c32 -21 148 -166 177 -219 9 -18 15 -36 12 -41 -28 -45
-196 89 -255 204 -22 43 -24 59 -7 76 14 14 30 10 73 -20z m-1868 -37 c26 -39
30 -76 8 -85 -18 -7 -44 18 -61 61 -28 66 13 84 53 24z m1568 -149 c15 -10 55
-63 55 -72 0 -21 -33 -18 -56 5 -34 34 -33 92 1 67z m-6015 -522 c0 -5 -2 -10
-4 -10 -3 0 -8 5 -11 10 -3 6 -1 10 4 10 6 0 11 -4 11 -10z m391 -167 c82 -81
153 -150 157 -153 12 -8 53 -82 49 -86 -9 -10 -357 349 -357 367 0 6 -5 7 -12
3 -7 -4 -8 -3 -4 4 4 7 10 12 13 12 3 0 72 -66 154 -147z m4334 93 c18 -27 17
-87 -1 -93 -19 -6 -74 47 -74 71 0 48 49 62 75 22z m-6435 -247 c0 -10 -34
-99 -49 -129 -5 -8 -20 -16 -35 -18 -33 -4 -34 17 -4 67 38 65 88 110 88 80z
m7234 -355 c10 -27 7 -38 -7 -25 -16 13 -28 5 -20 -15 9 -25 32 -15 42 19 9
32 9 32 10 4 1 -35 -25 -87 -44 -87 -8 0 -19 9 -25 19 -11 22 -14 84 -3 94 12
13 41 7 47 -9z m-6254 -243 c17 -33 12 -116 -8 -142 -30 -36 -48 -19 -55 50
-4 33 -2 72 3 86 11 30 45 33 60 6z m3169 -281 c-6 -16 -14 -30 -18 -30 -4 0
-18 -20 -30 -45 -12 -24 -26 -47 -31 -50 -5 -3 -7 -12 -4 -20 3 -8 2 -20 -2
-27 -5 -7 -9 -15 -9 -18 -1 -19 -29 -89 -35 -85 -16 10 -50 -27 -50 -56 0 -17
-6 -32 -15 -35 -8 -4 -13 -10 -10 -14 3 -5 -2 -16 -11 -24 -9 -9 -13 -23 -10
-31 3 -8 0 -17 -6 -21 -7 -5 -8 -2 -3 6 5 8 4 11 -3 6 -6 -4 -9 -13 -6 -21 3
-7 -8 -28 -25 -46 -17 -17 -31 -27 -31 -20 0 6 7 14 15 17 8 4 12 11 9 16 -7
12 25 88 38 88 4 0 7 3 6 8 -2 4 22 59 53 122 32 63 71 146 89 183 27 56 80
127 95 127 2 0 -1 -13 -6 -30z m1962 -87 c-30 -42 -71 -87 -71 -79 0 12 31 70
48 89 8 9 21 17 29 17 11 0 10 -7 -6 -27z m-1961 -192 c-13 -24 -29 -36 -26
-19 3 19 16 38 27 38 6 0 6 -7 -1 -19z m1860 -78 c-27 -60 -79 -143 -91 -143
-5 0 -9 11 -9 25 0 14 3 25 8 25 4 0 20 24 36 53 42 75 69 112 74 99 2 -6 -6
-33 -18 -59z m-1898 4 c-4 -14 -7 -16 -13 -5 -12 19 -11 25 5 25 8 0 11 -8 8
-20z m-41 -66 c-12 -16 -21 -33 -21 -37 0 -4 -10 -18 -21 -30 -12 -13 -22 -31
-23 -41 -1 -10 -18 -53 -39 -96 -20 -42 -37 -82 -37 -88 0 -6 -4 -7 -10 -4 -5
3 -10 19 -10 36 0 16 5 29 10 29 6 0 10 9 10 20 0 11 4 20 9 20 5 0 9 12 9 26
0 16 10 35 27 50 17 14 25 29 22 39 -4 8 -2 15 4 15 6 0 8 4 5 9 -3 4 8 20 25
35 16 15 35 39 41 54 9 21 12 23 15 10 3 -10 -5 -31 -16 -47z m-215 -146 c-1
-8 -7 -20 -13 -26 -9 -9 -11 -7 -8 7 2 11 4 22 4 27 1 4 5 7 10 7 5 0 8 -7 7
-15z m-51 -146 c-4 -5 -12 -9 -18 -8 -9 0 -8 2 1 6 6 2 9 10 6 15 -4 7 -2 8 5
4 6 -4 9 -12 6 -17z m-42 -99 c3 -11 1 -18 -4 -14 -5 3 -9 12 -9 20 0 20 7 17
13 -6z m-9 -36 c3 -8 2 -12 -4 -9 -6 3 -10 10 -10 16 0 14 7 11 14 -7z m87
-67 c-10 -9 -11 -8 -5 6 3 10 9 15 12 12 3 -3 0 -11 -7 -18z m-111 -37 c0 -5
-4 -10 -10 -10 -5 0 -10 5 -10 10 0 6 5 10 10 10 6 0 10 -4 10 -10z m-15 -45
c-2 -36 -10 -39 -13 -5 -1 17 1 30 6 30 4 0 7 -11 7 -25z m-53 -252 c-5 -59
-10 -63 -11 -10 -1 26 3 47 7 47 4 0 6 -17 4 -37z m-7 -80 c-1 -10 3 -24 9
-32 8 -11 8 -13 -1 -8 -7 4 -13 0 -16 -10 -3 -10 -5 1 -6 25 0 23 3 42 8 42 5
0 8 -8 6 -17z m-18 -105 c-3 -7 -5 -2 -5 12 0 14 2 19 5 13 2 -7 2 -19 0 -25z
m43 -2 c0 -11 -19 -15 -25 -6 -3 5 1 10 9 10 9 0 16 -2 16 -4z m-35 -113 c-1
-16 2 -33 6 -38 4 -6 1 -19 -7 -29 -13 -18 -14 -15 -14 30 0 42 5 64 15 64 1
0 1 -12 0 -27z m19 -111 c-3 -15 -6 -32 -6 -39 -1 -7 -7 -14 -14 -17 -9 -3
-11 2 -8 17 3 12 7 31 8 42 2 11 4 24 5 28 0 5 6 5 11 2 6 -3 8 -18 4 -33z
m-733 -1004 c13 -18 40 -53 61 -77 21 -24 38 -51 38 -59 0 -13 -24 -55 -108
-191 l-14 -24 -31 56 c-16 31 -45 75 -64 97 l-35 40 19 30 c10 16 36 59 57 95
22 36 43 65 47 65 4 0 18 -15 30 -32z"/>
<path d="M15290 15243 c0 -4 12 -28 26 -53 31 -53 154 -345 154 -364 0 -8 18
-59 39 -114 22 -54 45 -120 52 -145 7 -28 16 -44 22 -40 6 4 8 0 4 -10 -5 -14
7 -80 40 -214 3 -13 10 -20 19 -16 11 4 12 -1 3 -26 -7 -21 -8 -39 -1 -58 9
-24 11 -25 11 -7 1 12 8 27 16 34 14 12 14 31 -5 115 -5 22 -14 63 -19 90 -61
294 -82 358 -193 581 -65 130 -115 207 -148 224 -11 6 -20 7 -20 3z m390 -997
c0 -11 -19 -15 -25 -6 -3 5 1 10 9 10 9 0 16 -2 16 -4z"/>
<path d="M15043 15102 c2 -12 7 -25 12 -29 4 -5 5 -2 0 6 -5 9 -4 12 3 7 7 -4
12 -13 12 -20 0 -15 40 -54 40 -40 0 5 7 0 15 -10 18 -23 20 -14 4 16 -9 16
-8 23 2 29 10 6 8 9 -7 9 -14 0 -24 8 -27 21 -3 12 -10 18 -17 14 -6 -4 -17
-1 -26 5 -12 11 -14 9 -11 -8z"/>
<path d="M15221 14966 c2 -2 15 -9 29 -15 24 -11 24 -11 6 3 -16 13 -49 24
-35 12z"/>
<path d="M15286 14915 c3 -7 22 -21 42 -30 20 -9 54 -26 75 -36 52 -26 44 -4
-14 37 -49 35 -112 53 -103 29z"/>
<path d="M13725 15280 c-4 -17 -5 -34 -2 -36 2 -3 7 10 11 27 3 18 4 34 2 36
-2 3 -7 -10 -11 -27z"/>
<path d="M11108 13063 c7 -3 16 -2 19 1 4 3 -2 6 -13 5 -11 0 -14 -3 -6 -6z"/>
<path d="M4743 15244 c-7 -7 -13 -17 -13 -22 0 -15 -122 -125 -172 -157 -27
-16 -48 -33 -48 -37 0 -4 -6 -8 -13 -8 -12 0 -77 -45 -166 -115 -24 -20 -46
-33 -49 -31 -5 5 65 195 104 285 29 66 29 69 3 45 -28 -25 -87 -144 -154 -310
-52 -128 -101 -313 -134 -504 -26 -155 -42 -552 -22 -564 10 -6 21 74 21 153
0 61 24 235 45 331 8 36 30 136 50 223 34 158 61 235 93 270 21 23 180 143
242 182 93 59 237 222 228 259 -3 12 -5 12 -15 0z"/>
<path d="M9857 11923 c-2 -43 -5 -950 -5 -2015 -2 -1542 1 -1938 11 -1938 8 0
7 -4 -3 -10 -13 -9 -13 -10 0 -10 9 0 11 -3 5 -8 -16 -11 -19 -72 -3 -72 10 0
9 -3 -2 -10 -9 -6 -10 -10 -3 -10 16 0 26 17 13 25 -6 4 -7 12 -1 24 13 24 15
4101 2 4101 -5 0 -11 -35 -14 -77z"/>
<path d="M9865 7161 c-3 -5 -2 -12 3 -15 5 -3 9 1 9 9 0 17 -3 19 -12 6z"/>
<path d="M9871 6534 c0 -11 3 -14 6 -6 3 7 2 16 -1 19 -3 4 -6 -2 -5 -13z"/>
<path d="M4435 18830 c-3 -5 -1 -10 4 -10 6 0 11 5 11 10 0 6 -2 10 -4 10 -3
0 -8 -4 -11 -10z"/>
<path d="M4390 18745 c0 -8 5 -15 10 -15 6 0 10 7 10 15 0 8 -4 15 -10 15 -5
0 -10 -7 -10 -15z"/>
<path d="M9804 18613 c-140 -179 -332 -419 -438 -548 -50 -60 -104 -127 -120
-148 -39 -53 -146 -167 -157 -167 -5 0 -20 21 -33 48 -36 70 -103 143 -124
134 -43 -17 -112 -93 -112 -123 0 -8 27 -45 60 -84 34 -38 83 -96 110 -128 28
-32 50 -62 50 -68 0 -21 -22 -5 -77 57 -116 133 -166 184 -179 184 -14 0 -84
-91 -84 -110 0 -15 52 -92 110 -160 50 -59 90 -114 90 -124 0 -22 -36 3 -82
56 -88 104 -112 131 -135 155 l-23 24 -61 -66 c-61 -65 -82 -76 -93 -52 -4 6
-4 2 -2 -11 4 -19 2 -21 -10 -11 -7 6 -11 16 -8 23 3 6 -2 2 -10 -8 -10 -12
-16 -15 -16 -7 0 8 -6 11 -15 7 -9 -3 -15 0 -15 8 0 8 -6 16 -13 19 -8 3 -14
-1 -14 -9 0 -7 5 -11 10 -7 5 3 6 -3 3 -14 -4 -11 -2 -32 3 -46 8 -21 7 -25
-4 -21 -8 3 -20 -6 -29 -23 l-15 -28 2 28 c1 15 5 27 9 27 4 0 8 7 8 15 0 8
-5 15 -12 15 -6 0 -8 3 -5 6 6 6 -29 44 -40 44 -2 0 -1 -12 3 -27 6 -26 5 -27
-8 -9 -9 11 -17 15 -21 9 -4 -6 -18 -8 -32 -6 -13 3 -22 9 -20 14 3 4 12 6 20
3 9 -4 18 1 21 11 4 9 10 13 13 8 3 -5 17 -4 31 4 18 9 20 13 8 13 -10 0 -18
5 -18 10 0 6 -5 10 -11 10 -5 0 -7 -4 -4 -10 7 -11 1 -12 -92 -14 -44 0 -63
-5 -63 -13 0 -7 -5 -12 -12 -11 -7 2 -12 -2 -13 -9 0 -6 -3 -14 -7 -18 -10
-11 -3 22 8 36 21 27 28 42 16 35 -7 -4 -12 -2 -12 3 0 6 5 11 10 11 6 0 10 7
10 16 0 10 -5 14 -15 10 -9 -3 -18 1 -21 9 -6 16 -24 11 -24 -6 0 -6 4 -8 9
-4 12 7 24 -13 26 -42 0 -19 -4 -23 -30 -23 -23 0 -27 -3 -15 -10 8 -5 10 -10
4 -10 -18 0 -24 12 -13 26 9 11 5 11 -20 4 -22 -6 -29 -6 -25 2 5 7 1 9 -9 5
-23 -9 -28 4 -10 33 8 14 12 17 9 8 -3 -10 -1 -20 4 -23 6 -4 10 3 10 14 0 28
-15 34 -36 14 -16 -16 -16 -16 -10 4 5 15 2 22 -14 26 -11 3 -20 1 -20 -5 0
-5 -4 -6 -10 -3 -5 3 -10 -1 -10 -9 0 -8 -4 -17 -9 -20 -5 -4 -7 2 -4 13 4 15
-2 19 -27 23 -17 3 -33 1 -36 -4 -9 -14 -33 24 -27 42 4 9 0 7 -10 -5 -10 -12
-20 -16 -24 -10 -5 6 -19 10 -32 10 -13 0 -26 6 -28 13 -3 6 3 12 12 12 9 0
13 5 10 10 -4 6 -16 3 -32 -10 -30 -23 -50 -26 -50 -6 0 8 8 12 21 9 17 -3 16
-1 -3 7 -34 15 -58 5 -41 -15 7 -9 10 -18 6 -22 -8 -8 -13 -2 -18 22 -3 21
-16 35 -33 35 -5 0 -4 -4 4 -9 8 -5 10 -14 6 -21 -5 -9 -15 2 -29 31 -12 26
-28 44 -38 44 -9 0 -20 4 -24 8 -13 13 -36 8 -31 -7 4 -10 1 -13 -8 -10 -7 3
-16 12 -19 21 -4 10 -2 13 7 10 14 -5 42 47 33 62 -3 5 1 12 10 15 8 3 13 10
9 16 -3 5 -1 18 5 29 7 14 7 22 -1 26 -11 8 -59 -43 -59 -63 0 -33 -302 -450
-327 -451 -21 -1 -15 10 46 94 80 108 197 311 258 448 12 26 12 26 -8 14 -17
-10 -22 -9 -35 7 -8 11 -14 15 -14 9 0 -7 5 -15 10 -18 7 -4 7 -13 0 -26 -6
-11 -8 -24 -5 -29 3 -6 1 -10 -6 -10 -7 0 -9 -3 -6 -7 10 -9 -14 -34 -26 -26
-5 3 -7 1 -4 -4 4 -6 -3 -19 -15 -29 -12 -11 -18 -13 -13 -5 6 11 3 13 -13 9
-12 -4 -22 -3 -22 0 0 14 -80 92 -80 79 0 -7 12 -23 26 -36 20 -17 23 -25 14
-36 -10 -12 -8 -13 9 -10 12 2 19 0 16 -6 -4 -5 -11 -7 -16 -4 -5 4 -9 2 -9
-4 0 -6 -7 -8 -15 -5 -8 4 -13 10 -10 14 3 4 -9 13 -25 19 -17 5 -30 17 -30
25 0 19 -19 22 -21 4 -4 -36 34 -104 51 -93 5 3 12 -1 17 -9 4 -8 15 -16 23
-18 19 -4 35 -19 43 -42 6 -14 4 -17 -9 -12 -8 3 -18 6 -20 6 -3 0 -2 5 1 10
3 6 -1 10 -9 10 -9 0 -16 -4 -16 -10 0 -5 -5 -10 -10 -10 -6 0 -9 3 -9 8 3 20
-2 33 -11 27 -6 -4 -28 11 -50 31 -39 37 -50 67 -30 79 12 8 13 45 2 45 -5 0
-17 -19 -28 -42 -10 -24 -24 -46 -30 -50 -6 -4 -9 -20 -6 -34 4 -23 2 -26 -12
-21 -10 4 -15 3 -11 -3 8 -13 -33 -87 -52 -94 -10 -4 -13 -1 -8 13 14 45 158
326 173 339 9 7 12 11 6 8 -6 -3 2 20 18 51 15 31 28 62 28 69 0 7 11 33 24
56 29 53 40 88 28 88 -19 0 -201 -196 -202 -218 -1 -4 -14 -18 -30 -32 -17
-13 -30 -30 -30 -37 0 -7 -4 -13 -10 -13 -5 0 -10 -5 -10 -11 0 -7 -11 -22
-25 -35 -14 -13 -25 -26 -25 -30 0 -4 -24 -37 -53 -73 -30 -36 -71 -92 -92
-123 -20 -32 -41 -55 -46 -52 -5 3 -6 -1 -3 -9 3 -8 -2 -20 -11 -27 -9 -7 -25
-33 -35 -56 -11 -24 -24 -46 -30 -49 -12 -8 -2 20 22 60 10 17 18 40 18 52 0
13 9 28 20 35 11 7 20 18 20 25 0 7 5 13 10 13 6 0 10 3 9 8 -2 15 14 52 22
52 5 0 8 5 7 12 -2 7 3 12 10 13 6 0 12 4 11 9 0 5 5 13 13 17 10 7 8 9 -7 10
-19 0 -19 1 2 11 24 11 36 34 27 49 -8 13 -24 1 -34 -27 -5 -13 -17 -24 -27
-24 -15 0 -16 2 -3 10 8 5 13 10 10 11 -3 0 -13 2 -23 4 -9 2 -15 -1 -12 -5 3
-5 1 -11 -4 -14 -5 -3 -11 1 -15 9 -3 8 -1 17 3 19 5 3 7 17 6 31 -2 14 1 23
6 19 5 -3 9 0 9 5 0 6 -6 11 -12 11 -10 0 -9 3 1 9 10 7 12 21 7 54 -5 33 -3
54 8 75 11 22 12 32 3 41 -8 8 -7 11 4 11 12 0 12 2 -1 10 -9 6 -10 10 -3 10
15 0 8 125 -12 196 -13 47 -13 44 -15 -96 -1 -80 -3 -152 -5 -160 -19 -100
-40 -186 -57 -239 -17 -53 -18 -65 -7 -72 11 -7 11 -9 -3 -9 -9 0 -20 -10 -24
-22 -3 -13 -20 -54 -37 -91 l-31 -69 -38 6 c-41 7 -51 -6 -18 -24 26 -14 25
-44 -1 -81 -23 -32 -16 -38 14 -11 16 13 19 14 15 2 -3 -8 -1 -23 4 -32 5 -12
5 -18 -2 -18 -5 0 -9 -17 -9 -37 1 -22 3 -30 6 -18 5 19 36 55 48 55 3 0 5 -7
5 -15 0 -8 -4 -15 -10 -15 -5 0 -10 -9 -10 -19 0 -11 -3 -21 -7 -23 -7 -3 -37
-55 -67 -115 -6 -13 -14 -23 -18 -23 -5 0 -8 -7 -8 -15 0 -8 -4 -15 -8 -15 -5
0 -9 -6 -9 -14 0 -22 -30 -80 -53 -101 -23 -21 -39 -13 -20 10 9 11 10 19 2
27 -6 6 -8 17 -5 24 6 17 -13 19 -21 2 -5 -10 -7 -10 -12 0 -5 10 -9 10 -20 1
-21 -17 -18 2 8 59 30 66 31 70 11 42 -10 -13 -39 -50 -64 -80 -26 -31 -84
-114 -130 -185 -45 -71 -113 -174 -151 -228 -38 -54 -67 -105 -64 -112 6 -18
269 -235 381 -315 50 -36 133 -90 185 -121 52 -31 127 -76 165 -99 126 -75
523 -261 705 -329 47 -18 99 -38 115 -45 61 -27 415 -136 565 -175 370 -95
797 -173 1005 -184 l60 -3 -3 -114 c-5 -151 21 -282 79 -400 57 -116 195 -255
317 -318 207 -108 457 -121 678 -35 116 45 257 165 343 292 103 151 125 233
118 432 l-5 146 107 6 c264 16 888 144 1256 258 72 22 146 45 165 51 107 32
378 137 531 206 174 78 390 193 562 300 134 82 493 356 549 418 16 18 12 26
-81 165 -83 125 -151 221 -171 239 -11 11 -89 118 -130 178 -39 58 -55 69 -55
39 0 -7 5 -18 12 -25 15 -15 7 -36 -9 -26 -6 4 -8 2 -5 -3 4 -6 1 -16 -7 -22
-10 -9 -16 -7 -26 4 -7 9 -19 14 -27 11 -8 -3 -12 -2 -9 3 3 5 0 11 -8 14 -7
3 -39 56 -70 117 -111 217 -238 408 -403 609 -246 298 -278 334 -293 329 -6
-2 -4 -15 4 -30 8 -14 26 -57 41 -95 30 -73 49 -117 156 -346 38 -81 69 -150
69 -153 0 -3 25 -58 56 -122 74 -155 96 -204 127 -282 34 -87 70 -201 70 -220
0 -8 12 -43 28 -77 26 -59 25 -69 -4 -64 -5 1 -6 -3 -2 -8 3 -6 12 -8 20 -4
10 3 15 -2 15 -17 0 -12 4 -29 9 -38 14 -27 25 -155 12 -148 -5 4 -8 13 -4 21
3 8 0 15 -6 15 -6 0 -11 17 -11 40 0 37 -3 41 -30 47 -16 3 -30 10 -30 15 0 5
4 7 8 4 5 -3 9 1 9 9 0 8 -3 14 -6 13 -28 -3 -42 4 -39 20 2 11 -3 16 -14 14
-12 -2 -18 4 -18 18 0 11 -4 20 -8 20 -5 0 -14 10 -21 23 -6 12 -9 14 -6 4 3
-12 -3 -21 -18 -28 -19 -8 -18 -9 8 -3 16 3 27 2 23 -2 -4 -4 -3 -13 4 -21 6
-7 8 -17 4 -20 -4 -4 -11 -2 -15 6 -6 10 -11 9 -24 -3 -8 -9 -21 -16 -27 -16
-8 0 -8 -6 0 -20 11 -20 -3 -30 -15 -10 -10 16 -27 0 -20 -19 3 -9 -10 3 -30
27 -36 42 -70 57 -58 26 3 -9 12 -13 22 -9 12 5 13 3 5 -5 -13 -13 -41 -16
-71 -6 -16 5 -28 1 -44 -15 -17 -17 -23 -19 -30 -8 -5 9 -9 9 -9 3 0 -7 -7
-14 -14 -17 -10 -4 -13 -1 -10 8 4 10 -1 12 -18 8 -13 -4 -26 -11 -30 -17 -5
-7 -8 -6 -8 4 0 13 -1 13 -10 0 -8 -13 -10 -13 -10 2 0 9 -5 20 -12 24 -7 5
-9 2 -6 -8 4 -8 2 -21 -3 -29 -7 -11 -9 -10 -10 6 -1 11 -1 23 0 27 0 4 -7 4
-16 1 -11 -4 -13 -8 -5 -11 7 -2 12 -8 12 -13 0 -14 -28 -11 -33 4 -2 6 -2 1
0 -13 3 -19 2 -22 -8 -13 -15 15 -39 6 -32 -13 3 -9 -2 -14 -16 -14 -12 0 -21
-5 -21 -12 0 -9 -3 -9 -12 0 -7 7 -22 12 -34 12 -13 0 -26 5 -29 10 -4 7 -13
7 -26 0 -15 -9 -26 -7 -47 9 -34 24 -101 25 -95 1 3 -10 -8 -20 -29 -28 -28
-10 -35 -10 -44 2 -9 13 -13 13 -28 -2 -17 -16 -18 -16 -7 6 14 26 27 28 40 5
11 -21 21 -14 24 16 1 19 2 19 21 3 11 -9 16 -11 12 -5 -4 7 -9 23 -11 35 -3
12 -10 26 -16 32 -9 8 -10 8 -5 -2 9 -15 -12 -44 -25 -36 -5 3 -7 9 -4 14 3 5
-6 12 -20 16 -14 3 -24 9 -21 12 9 8 -14 32 -30 32 -8 0 -14 -6 -14 -14 0 -8
-8 -17 -17 -20 -10 -2 -2 -4 17 -3 44 2 50 -26 7 -31 -18 -2 -25 -8 -20 -15 7
-13 -35 20 -52 40 -22 27 -88 72 -96 67 -5 -3 -9 0 -9 6 0 6 -4 9 -9 6 -4 -3
-31 19 -60 49 -28 30 -53 55 -57 55 -6 0 -146 147 -176 186 -13 16 -39 47 -59
69 -182 201 -339 379 -339 386 0 5 -9 9 -21 9 -21 0 -43 -20 -138 -130 -38
-43 -56 -58 -62 -49 -9 15 12 46 63 99 61 62 89 106 81 126 -12 33 -74 114
-87 114 -7 0 -46 -41 -85 -91 -69 -85 -95 -109 -107 -96 -9 9 13 43 86 127 39
45 70 85 70 90 0 5 -17 28 -37 52 -21 24 -49 59 -63 77 l-25 33 -27 -22 c-15
-11 -44 -48 -64 -80 -20 -33 -42 -60 -48 -59 -6 0 -49 50 -96 111 -93 122
-184 236 -340 428 -150 184 -283 351 -309 388 -12 17 -26 32 -30 32 -5 0 -53
-57 -107 -127z m268 -648 c169 -206 403 -486 647 -775 414 -489 551 -661 551
-688 0 -6 -8 -16 -19 -21 -16 -9 -288 -197 -536 -370 -212 -149 -210 -147
-235 -256 -13 -56 -12 -474 2 -560 18 -119 16 -332 -5 -388 -40 -111 -133
-219 -250 -290 -191 -116 -476 -110 -662 14 -86 58 -176 151 -211 220 -49 98
-58 157 -48 339 11 221 11 459 0 493 -7 24 -5 27 13 27 12 0 21 -3 21 -7 0 -5
23 -24 51 -43 76 -51 136 -123 154 -183 18 -60 21 -273 5 -358 -19 -97 -6
-119 29 -51 33 64 54 211 55 387 1 160 1 160 -29 215 -16 30 -57 82 -90 115
-61 60 -98 87 -320 235 -66 43 -154 104 -195 133 -41 30 -139 99 -218 152 -78
54 -169 121 -201 149 -31 28 -70 60 -85 71 l-28 20 30 38 c17 21 66 77 110
125 43 48 110 123 148 167 133 156 179 209 234 270 30 33 104 117 165 186 60
68 124 140 141 159 77 87 137 156 239 276 61 71 118 138 128 149 10 11 64 75
120 143 56 67 105 121 109 120 4 -2 85 -98 180 -213z m-3349 -124 c5 -19 -27
-70 -35 -55 -7 12 11 74 21 74 5 0 11 -8 14 -19z m77 -45 c0 -3 -16 -22 -37
-43 l-36 -38 19 35 c10 19 24 38 29 42 11 8 25 10 25 4z m507 -23 c3 -7 -4
-11 -15 -10 -10 0 -19 7 -19 14 0 17 29 13 34 -4z m-627 -53 c0 -5 -5 -10 -11
-10 -5 0 -7 5 -4 10 3 6 8 10 11 10 2 0 4 -4 4 -10z m827 -32 c-3 -8 -6 -5 -6
6 -1 11 2 17 5 13 3 -3 4 -12 1 -19z m-837 8 c0 -2 -7 -9 -15 -16 -13 -11 -14
-10 -9 4 5 14 24 23 24 12z m-33 -68 c-3 -7 -5 -2 -5 12 0 14 2 19 5 13 2 -7
2 -19 0 -25z m1113 -8 c8 -5 11 -10 5 -10 -5 0 -17 5 -25 10 -8 5 -10 10 -5
10 6 0 17 -5 25 -10z m-779 -27 c-12 -20 -14 -14 -5 12 4 9 9 14 11 11 3 -2 0
-13 -6 -23z m869 4 c0 -5 -7 -6 -16 -3 -12 4 -15 2 -10 -9 4 -12 2 -13 -14 -2
-18 11 -18 12 -3 18 25 8 43 7 43 -4z m74 -22 c-4 -8 -8 -15 -10 -15 -2 0 -4
7 -4 15 0 8 4 15 10 15 5 0 7 -7 4 -15z m63 -17 c-3 -7 -5 -2 -5 12 0 14 2 19
5 13 2 -7 2 -19 0 -25z m-177 -33 c0 -5 -5 -3 -10 5 -5 8 -10 20 -10 25 0 6 5
3 10 -5 5 -8 10 -19 10 -25z m36 5 c0 -12 -4 -16 -9 -11 -5 5 -6 14 -3 20 10
15 12 14 12 -9z m79 11 c3 -5 0 -13 -6 -17 -8 -5 -9 -3 -4 6 6 10 4 12 -9 7
-10 -4 -15 -3 -11 3 8 13 22 13 30 1z m75 -33 c0 -4 -4 -8 -9 -8 -6 0 -12 4
-15 8 -3 5 1 9 9 9 8 0 15 -4 15 -9z m210 -29 c0 -4 -9 -7 -19 -6 -11 0 -18 4
-16 7 6 9 35 8 35 -1z m-1560 -15 c0 -12 -23 -25 -43 -23 -7 0 -3 4 8 9 18 8
18 9 2 9 -10 1 -16 5 -12 10 8 14 45 9 45 -5z m1854 -34 c-6 -6 -10 -3 -10 10
0 13 4 16 10 10 7 -7 7 -13 0 -20z m-24 -25 c0 -8 -4 -14 -9 -12 -5 1 -17 -7
-26 -18 -15 -19 -16 -19 -4 5 10 21 27 39 37 40 1 0 2 -7 2 -15z m4910 -309
c0 -2 -7 -7 -16 -10 -8 -3 -12 -2 -9 4 6 10 25 14 25 6z m-7010 -26 c0 -5 -4
-10 -10 -10 -5 0 -10 5 -10 10 0 6 5 10 10 10 6 0 10 -4 10 -10z m5537 -285
c8 -9 13 -19 9 -22 -7 -7 -36 16 -36 28 0 13 10 11 27 -6z m1080 -30 c-13 -27
-22 -31 -33 -13 -4 7 -3 8 4 4 7 -4 12 -1 12 8 0 8 6 17 13 19 6 3 13 6 14 6
0 1 -4 -10 -10 -24z m-137 1 c0 -3 -4 -8 -10 -11 -5 -3 -10 -1 -10 4 0 6 5 11
10 11 6 0 10 -2 10 -4z m-910 -16 c0 -5 -2 -10 -4 -10 -3 0 -8 5 -11 10 -3 6
-1 10 4 10 6 0 11 -4 11 -10z m847 -6 c-3 -3 -12 -4 -19 -1 -8 3 -5 6 6 6 11
1 17 -2 13 -5z m-157 -24 c0 -5 -5 -10 -11 -10 -5 0 -7 5 -4 10 3 6 8 10 11
10 2 0 4 -4 4 -10z m-76 -26 c5 -14 4 -15 -9 -4 -17 14 -19 20 -6 20 5 0 12
-7 15 -16z m-504 -21 c0 -7 -4 -13 -10 -13 -5 0 -10 5 -10 11 0 5 -5 7 -12 3
-6 -4 -8 -3 -5 3 9 14 37 12 37 -4z m454 2 c-4 -8 -11 -12 -16 -9 -6 4 -5 10
3 15 19 12 19 11 13 -6z m-71 -20 c-3 -9 -8 -14 -10 -11 -3 3 -2 9 2 15 9 16
15 13 8 -4z m407 11 c0 -3 -4 -8 -10 -11 -5 -3 -10 -1 -10 4 0 6 5 11 10 11 6
0 10 -2 10 -4z m-453 -32 c-9 -9 -28 6 -21 18 4 6 10 6 17 -1 6 -6 8 -13 4
-17z m-327 12 c0 -11 -19 -15 -25 -6 -3 5 1 10 9 10 9 0 16 -2 16 -4z m60 -6
c0 -5 -8 -10 -17 -10 -15 0 -16 2 -3 10 19 12 20 12 20 0z m360 1 c0 -5 -9
-11 -21 -14 -13 -4 -18 -10 -13 -18 5 -8 3 -10 -6 -4 -10 6 -8 12 9 27 26 20
31 22 31 9z m-1196 -35 c14 -22 34 -97 22 -86 -6 6 -45 110 -41 110 1 0 10
-11 19 -24z m797 11 c-1 -12 -15 -9 -19 4 -3 6 1 10 8 8 6 -3 11 -8 11 -12z
m559 -7 c0 -5 -4 -10 -10 -10 -5 0 -10 5 -10 10 0 6 5 10 10 10 6 0 10 -4 10
-10z m-145 -9 c3 -5 2 -12 -3 -15 -5 -3 -9 1 -9 9 0 17 3 19 12 6z m685 -40
c0 -32 -6 -24 -14 19 -4 25 -3 31 4 20 5 -8 10 -26 10 -39z m-6403 7 c40 -38
28 -79 -28 -93 -21 -5 -31 -1 -48 21 -25 32 -27 51 -4 76 22 24 52 23 80 -4z
m6363 12 c0 -5 -2 -10 -4 -10 -3 0 -8 5 -11 10 -3 6 -1 10 4 10 6 0 11 -4 11
-10z m58 -151 c-3 -8 -7 -3 -11 10 -4 17 -3 21 5 13 5 -5 8 -16 6 -23z m-5710
-301 c17 -17 15 -32 -8 -59 -20 -22 -22 -22 -48 -7 -36 22 -42 65 -10 71 42 8
54 7 66 -5z m-393 -58 c3 -5 14 -10 24 -10 19 0 70 -52 89 -90 17 -35 12 -79
-8 -72 -30 11 -70 39 -64 44 3 4 -4 9 -15 13 -12 3 -19 10 -16 15 3 5 1 11 -5
15 -5 3 -10 14 -10 24 0 10 -7 24 -15 31 -8 7 -15 19 -15 26 0 16 26 19 35 4z"/>
<path d="M9885 17709 c-5 -15 -1 -25 14 -35 11 -8 53 -58 93 -112 75 -100 239
-304 363 -451 38 -45 86 -102 105 -126 152 -188 193 -234 202 -229 7 4 8 2 4
-4 -8 -13 18 -56 34 -58 23 -3 24 -5 12 -13 -11 -7 -10 -9 3 -14 9 -4 13 -3
10 3 -3 6 -1 10 4 10 6 0 11 -4 11 -9 0 -5 9 -11 20 -14 16 -4 18 -2 11 11
-13 23 -140 181 -216 267 -145 166 -543 652 -612 748 -32 44 -50 52 -58 26z"/>
<path d="M9629 17403 c-95 -115 -234 -277 -309 -362 -74 -84 -177 -202 -228
-261 l-92 -109 101 -118 c56 -65 110 -127 122 -138 l20 -20 -19 33 c-10 17
-22 32 -26 32 -4 0 -7 4 -5 9 3 15 -36 71 -50 71 -7 0 -13 9 -13 21 0 11 -4
18 -9 14 -11 -6 -26 13 -17 22 7 7 103 -94 159 -167 23 -30 52 -66 65 -80 13
-14 79 -92 146 -175 68 -82 133 -159 145 -169 11 -11 21 -23 21 -28 0 -5 16
-26 35 -46 19 -20 38 -45 41 -54 3 -10 10 -18 15 -18 5 0 9 -8 9 -18 0 -10 12
-31 28 -48 15 -16 47 -54 71 -83 l45 -53 24 28 c13 16 34 40 46 54 12 14 32
41 46 60 13 19 49 60 80 90 31 30 65 69 78 86 12 18 36 47 54 66 113 116 253
274 313 350 16 22 53 65 82 96 65 71 92 117 76 133 -8 8 -17 4 -36 -17 -13
-16 -57 -67 -98 -114 -41 -47 -99 -114 -129 -150 -30 -36 -104 -122 -165 -191
-60 -69 -166 -194 -235 -277 -69 -83 -128 -151 -131 -151 -3 -1 -34 36 -70 81
-68 87 -130 164 -319 398 -228 282 -323 395 -361 435 -22 23 -39 45 -39 49 0
5 17 32 38 60 21 28 50 69 64 92 15 22 32 47 40 55 7 8 25 30 38 49 13 19 27
37 30 40 5 5 209 257 269 334 14 17 50 60 81 96 50 59 125 156 144 188 23 38
-19 -9 -175 -195z"/>
<path d="M10274 15778 c-64 -66 -94 -105 -94 -123 0 -5 11 8 25 29 13 21 50
65 81 97 32 33 56 59 53 59 -2 0 -32 -28 -65 -62z"/>
<path d="M10402 15694 l-37 -36 43 32 c23 17 42 34 42 36 0 10 -13 1 -48 -32z"/>
<path d="M10207 15468 c-3 -13 -2 -43 3 -68 7 -44 8 -43 9 23 1 69 -3 84 -12
45z"/>
<path d="M9649 15093 c-50 -52 -73 -88 -64 -102 3 -5 29 -23 58 -39 28 -17 90
-67 135 -111 46 -45 89 -81 95 -81 7 0 37 23 67 51 30 28 88 75 128 105 99 75
106 88 86 147 -20 60 -37 60 -104 0 -59 -53 -150 -169 -150 -190 0 -8 -6 -13
-12 -11 -16 5 -101 126 -133 188 -12 25 -31 55 -41 68 l-19 23 -46 -48z"/>
<path d="M7163 15973 c-17 -6 -17 -23 0 -23 8 0 14 7 14 15 0 8 -1 15 -1 14
-1 0 -7 -3 -13 -6z"/>
<path d="M7185 15930 c3 -5 8 -10 11 -10 2 0 4 5 4 10 0 6 -5 10 -11 10 -5 0
-7 -4 -4 -10z"/>
<path d="M4374 18693 c-3 -10 -11 -28 -16 -40 -11 -22 -5 -53 10 -53 4 0 8 10
9 23 1 12 5 37 8 55 6 34 -2 44 -11 15z"/>
<path d="M15414 18495 c4 -24 16 -30 16 -7 0 12 -4 22 -9 22 -5 0 -8 -7 -7
-15z"/>
<path d="M5230 18389 c0 -5 5 -7 10 -4 6 3 10 8 10 11 0 2 -4 4 -10 4 -5 0
-10 -5 -10 -11z"/>
<path d="M14813 18373 c9 -2 23 -2 30 0 6 3 -1 5 -18 5 -16 0 -22 -2 -12 -5z"/>
<path d="M14820 18351 c0 -5 11 -11 25 -13 20 -4 23 -3 14 8 -13 16 -39 19
-39 5z"/>
<path d="M7552 18250 c0 -14 2 -19 5 -12 2 6 2 18 0 25 -3 6 -5 1 -5 -13z"/>
<path d="M4980 18206 c0 -2 7 -7 16 -10 8 -3 12 -2 9 4 -6 10 -25 14 -25 6z"/>
<path d="M15266 18198 c3 -5 10 -6 15 -3 13 9 11 12 -6 12 -8 0 -12 -4 -9 -9z"/>
<path d="M7509 18107 c-3 -15 -11 -37 -30 -84 -5 -13 -5 -23 0 -23 11 0 44
100 37 108 -3 3 -7 2 -7 -1z"/>
<path d="M13550 18098 c0 -18 61 -108 73 -108 3 0 -10 24 -30 53 -38 57 -43
63 -43 55z"/>
<path d="M13840 18041 c0 -5 7 -12 16 -15 24 -9 27 -7 10 9 -17 17 -26 19 -26
6z"/>
<path d="M14020 17980 c19 -13 30 -13 30 0 0 6 -10 10 -22 10 -19 0 -20 -2 -8
-10z"/>
<path d="M6810 17911 c0 -5 7 -11 14 -14 10 -4 13 -1 9 9 -6 15 -23 19 -23 5z"/>
<path d="M6763 17866 c0 -8 6 -12 14 -9 7 3 10 9 7 14 -8 14 -21 11 -21 -5z"/>
<path d="M16992 17745 c0 -16 2 -22 5 -12 2 9 2 23 0 30 -3 6 -5 -1 -5 -18z"/>
<path d="M7719 17718 c-8 -27 -5 -36 9 -30 10 4 12 7 4 10 -7 2 -10 8 -6 13 3
5 3 9 0 9 -3 0 -6 -1 -7 -2z"/>
<path d="M7660 17701 c0 -7 -5 -9 -12 -5 -7 5 -8 3 -3 -5 5 -9 10 -10 18 -2 6
6 8 14 4 18 -4 3 -7 1 -7 -6z"/>
<path d="M7776 17653 c-6 -14 -5 -15 5 -6 7 7 10 15 7 18 -3 3 -9 -2 -12 -12z"/>
<path d="M8076 17565 c14 -10 15 -14 5 -15 -11 0 -9 -4 5 -15 25 -19 30 -19
30 4 0 11 -4 17 -8 15 -5 -3 -11 2 -14 10 -3 9 -13 16 -22 16 -13 0 -12 -3 4
-15z"/>
<path d="M8520 17529 c0 -5 5 -7 10 -4 6 3 10 8 10 11 0 2 -4 4 -10 4 -5 0
-10 -5 -10 -11z"/>
<path d="M12362 17245 c0 -16 2 -22 5 -12 2 9 2 23 0 30 -3 6 -5 -1 -5 -18z"/>
<path d="M12233 17220 c0 -25 2 -35 4 -22 2 12 2 32 0 45 -2 12 -4 2 -4 -23z"/>
<path d="M6460 17210 c0 -5 5 -10 11 -10 5 0 7 5 4 10 -3 6 -8 10 -11 10 -2 0
-4 -4 -4 -10z"/>
<path d="M6440 17195 c0 -8 4 -15 10 -15 5 0 7 7 4 15 -4 8 -8 15 -10 15 -2 0
-4 -7 -4 -15z"/>
<path d="M12311 17140 c-13 -11 -19 -20 -14 -20 6 0 18 9 28 20 23 25 17 25
-14 0z"/>
<path d="M13050 16880 c6 -11 16 -20 22 -20 6 0 3 9 -7 20 -10 11 -20 20 -22
20 -2 0 1 -9 7 -20z"/>
<path d="M12816 16843 c-6 -14 -5 -15 5 -6 7 7 10 15 7 18 -3 3 -9 -2 -12 -12z"/>
<path d="M12458 16753 c7 -3 16 -2 19 1 4 3 -2 6 -13 5 -11 0 -14 -3 -6 -6z"/>
<path d="M12293 16715 c0 -8 9 -15 20 -15 10 0 17 5 15 13 -7 18 -35 20 -35 2z"/>
<path d="M18929 12748 c-129 -104 -245 -251 -319 -403 -59 -121 -84 -196 -110
-335 -22 -118 -25 -150 -10 -150 6 0 10 19 10 41 0 40 9 71 72 264 59 179 190
377 361 546 99 98 97 118 -4 37z"/>
<path d="M842 12661 c59 -61 139 -152 179 -201 39 -50 74 -90 76 -90 10 0 -53
99 -112 175 -73 94 -166 185 -215 210 -27 14 -10 -8 72 -94z"/>
</g>
</svg>
